solid OpenSCAD_Model
  facet normal -0.994522 0.104528 0
    outer loop
      vertex -20 0 38
      vertex -20 0 41
      vertex -19.563 4.15823 38
    endloop
  endfacet
  facet normal -0.994522 0.104528 0
    outer loop
      vertex -19.563 4.15823 38
      vertex -20 0 41
      vertex -19.563 4.15823 41
    endloop
  endfacet
  facet normal -0.994522 -0.104528 0
    outer loop
      vertex -20 0 38
      vertex -19.563 -4.15823 38
      vertex -20 0 41
    endloop
  endfacet
  facet normal -0.994522 -0.104528 0
    outer loop
      vertex -20 0 41
      vertex -19.563 -4.15823 38
      vertex -19.563 -4.15823 41
    endloop
  endfacet
  facet normal 0 0 -1
    outer loop
      vertex -18.2709 8.13473 38
      vertex -16.1803 11.7557 38
      vertex -19.563 4.15823 38
    endloop
  endfacet
  facet normal 0 0 -1
    outer loop
      vertex -19.563 4.15823 38
      vertex -16.1803 11.7557 38
      vertex -13.3826 14.8629 38
    endloop
  endfacet
  facet normal 0 0 -1
    outer loop
      vertex -19.563 4.15823 38
      vertex -13.3826 14.8629 38
      vertex -10 17.3205 38
    endloop
  endfacet
  facet normal 0 0 -1
    outer loop
      vertex -19.563 4.15823 38
      vertex -10 17.3205 38
      vertex -6.18034 19.0211 38
    endloop
  endfacet
  facet normal 0 0 -1
    outer loop
      vertex -7.34192 15.2105 38
      vertex -6.18034 19.0211 38
      vertex -2.09057 19.8904 38
    endloop
  endfacet
  facet normal 0 0 -1
    outer loop
      vertex -8.22951 -15.144 38
      vertex -6.18034 -19.0211 38
      vertex -9.50175 -13.9636 38
    endloop
  endfacet
  facet normal 0 0 -1
    outer loop
      vertex -5.90795 14.2329 38
      vertex 0 19.8904 38
      vertex 0 17 38
    endloop
  endfacet
  facet normal 0 0 -1
    outer loop
      vertex -7.05049 11.3217 38
      vertex 0 17 38
      vertex 10.4411 17 38
    endloop
  endfacet
  facet normal 0 0 -1
    outer loop
      vertex -19.563 4.15823 38
      vertex 10.4411 17 38
      vertex 13.3826 14.8629 38
    endloop
  endfacet
  facet normal 0 0 -1
    outer loop
      vertex -19.563 4.15823 38
      vertex 13.3826 14.8629 38
      vertex 16.1803 11.7557 38
    endloop
  endfacet
  facet normal 0 0 -1
    outer loop
      vertex -19.563 4.15823 38
      vertex 16.1803 11.7557 38
      vertex 18.2709 8.13473 38
    endloop
  endfacet
  facet normal 0 0 -1
    outer loop
      vertex -19.563 4.15823 38
      vertex 18.2709 8.13473 38
      vertex 19.563 4.15823 38
    endloop
  endfacet
  facet normal 0 0 -1
    outer loop
      vertex 17.2299 0.445042 38
      vertex 19.563 4.15823 38
      vertex 20 0 38
    endloop
  endfacet
  facet normal 0 0 -1
    outer loop
      vertex 15.28 -2 38
      vertex 20 0 38
      vertex 19.563 -4.15823 38
    endloop
  endfacet
  facet normal 0 0 -1
    outer loop
      vertex 3.54182 -1.85889 38
      vertex 19.563 -4.15823 38
      vertex 18.2709 -8.13473 38
    endloop
  endfacet
  facet normal 0 0 -1
    outer loop
      vertex 2.27226 -3.29194 38
      vertex 18.2709 -8.13473 38
      vertex 16.1803 -11.7557 38
    endloop
  endfacet
  facet normal 0 0 -1
    outer loop
      vertex -19.563 4.15823 38
      vertex 16.1803 -11.7557 38
      vertex 13.3826 -14.8629 38
    endloop
  endfacet
  facet normal 0 0 -1
    outer loop
      vertex -19.563 4.15823 38
      vertex 13.3826 -14.8629 38
      vertex 10.4411 -17 38
    endloop
  endfacet
  facet normal 0 0 -1
    outer loop
      vertex -19.563 4.15823 38
      vertex 10.4411 -17 38
      vertex 0 -17 38
    endloop
  endfacet
  facet normal 0 0 -1
    outer loop
      vertex -6.27965 -11.7668 38
      vertex 0 -17 38
      vertex 0 -19.8904 38
    endloop
  endfacet
  facet normal 0 0 -1
    outer loop
      vertex -5.64559 -13.3823 38
      vertex 0 -19.8904 38
      vertex -2.09057 -19.8904 38
    endloop
  endfacet
  facet normal 0 0 -1
    outer loop
      vertex -8.22951 -15.144 38
      vertex -2.09057 -19.8904 38
      vertex -6.18034 -19.0211 38
    endloop
  endfacet
  facet normal 0 0 -1
    outer loop
      vertex -9.50175 -13.9636 38
      vertex -6.18034 -19.0211 38
      vertex -10 -17.3205 38
    endloop
  endfacet
  facet normal 0 0 -1
    outer loop
      vertex -19.563 4.15823 38
      vertex -10 -17.3205 38
      vertex -13.3826 -14.8629 38
    endloop
  endfacet
  facet normal 0 0 -1
    outer loop
      vertex -19.563 4.15823 38
      vertex -13.3826 -14.8629 38
      vertex -16.1803 -11.7557 38
    endloop
  endfacet
  facet normal 0 0 -1
    outer loop
      vertex -19.563 4.15823 38
      vertex -16.1803 -11.7557 38
      vertex -18.2709 -8.13473 38
    endloop
  endfacet
  facet normal 0 0 -1
    outer loop
      vertex -19.563 4.15823 38
      vertex -18.2709 -8.13473 38
      vertex -19.563 -4.15823 38
    endloop
  endfacet
  facet normal 0 0 -1
    outer loop
      vertex -19.563 4.15823 38
      vertex -19.563 -4.15823 38
      vertex -20 0 38
    endloop
  endfacet
  facet normal 0 0 -1
    outer loop
      vertex -8.76664 11.5804 38
      vertex -19.563 4.15823 38
      vertex -9.63441 13.0834 38
    endloop
  endfacet
  facet normal 0 0 -1
    outer loop
      vertex -7.34192 15.2105 38
      vertex 0 19.8904 38
      vertex -5.90795 14.2329 38
    endloop
  endfacet
  facet normal 0 0 -1
    outer loop
      vertex -7.05049 11.3217 38
      vertex -19.563 4.15823 38
      vertex -8.76664 11.5804 38
    endloop
  endfacet
  facet normal 0 0 -1
    outer loop
      vertex -5.77825 12.5022 38
      vertex 0 17 38
      vertex -7.05049 11.3217 38
    endloop
  endfacet
  facet normal 0 0 -1
    outer loop
      vertex -19.563 4.15823 38
      vertex -7.05049 11.3217 38
      vertex 10.4411 17 38
    endloop
  endfacet
  facet normal 0 0 -1
    outer loop
      vertex -5.90795 14.2329 38
      vertex 0 17 38
      vertex -5.77825 12.5022 38
    endloop
  endfacet
  facet normal 0 0 -1
    outer loop
      vertex -7.34192 15.2105 38
      vertex -2.09057 19.8904 38
      vertex 0 19.8904 38
    endloop
  endfacet
  facet normal 0 0 -1
    outer loop
      vertex -9.00035 14.699 38
      vertex -6.18034 19.0211 38
      vertex -7.34192 15.2105 38
    endloop
  endfacet
  facet normal 0 0 -1
    outer loop
      vertex -19.563 4.15823 38
      vertex -6.18034 19.0211 38
      vertex -9.00035 14.699 38
    endloop
  endfacet
  facet normal 0 0 -1
    outer loop
      vertex -5.64559 -13.3823 38
      vertex -2.09057 -19.8904 38
      vertex -6.51336 -14.8853 38
    endloop
  endfacet
  facet normal 0 0 -1
    outer loop
      vertex -19.563 4.15823 38
      vertex -9.50175 -13.9636 38
      vertex -10 -17.3205 38
    endloop
  endfacet
  facet normal 0 0 -1
    outer loop
      vertex -6.51336 -14.8853 38
      vertex -2.09057 -19.8904 38
      vertex -8.22951 -15.144 38
    endloop
  endfacet
  facet normal 0 0 -1
    outer loop
      vertex 4 0 38
      vertex 19.563 -4.15823 38
      vertex 3.54182 -1.85889 38
    endloop
  endfacet
  facet normal 0 0 -1
    outer loop
      vertex -6.27965 -11.7668 38
      vertex 0 -19.8904 38
      vertex -5.64559 -13.3823 38
    endloop
  endfacet
  facet normal 0 0 -1
    outer loop
      vertex -19.563 4.15823 38
      vertex 0 -17 38
      vertex -6.27965 -11.7668 38
    endloop
  endfacet
  facet normal 0 0 -1
    outer loop
      vertex -7.93808 -11.2552 38
      vertex -19.563 4.15823 38
      vertex -6.27965 -11.7668 38
    endloop
  endfacet
  facet normal 0 0 -1
    outer loop
      vertex -9.37205 -12.2329 38
      vertex -19.563 4.15823 38
      vertex -7.93808 -11.2552 38
    endloop
  endfacet
  facet normal 0 0 -1
    outer loop
      vertex -3.88377 -0.957263 38
      vertex -19.563 4.15823 38
      vertex -3.88377 0.957263 38
    endloop
  endfacet
  facet normal 0 0 -1
    outer loop
      vertex 0.482147 -3.97083 38
      vertex 16.1803 -11.7557 38
      vertex -1.41842 -3.74006 38
    endloop
  endfacet
  facet normal 0 0 -1
    outer loop
      vertex -19.563 4.15823 38
      vertex -3.88377 -0.957263 38
      vertex -2.99404 -2.65249 38
    endloop
  endfacet
  facet normal 0 0 -1
    outer loop
      vertex -19.563 4.15823 38
      vertex -2.99404 -2.65249 38
      vertex -1.41842 -3.74006 38
    endloop
  endfacet
  facet normal 0 0 -1
    outer loop
      vertex -19.563 4.15823 38
      vertex -1.41842 -3.74006 38
      vertex 16.1803 -11.7557 38
    endloop
  endfacet
  facet normal 0 0 -1
    outer loop
      vertex 2.27226 -3.29194 38
      vertex 16.1803 -11.7557 38
      vertex 0.482147 -3.97083 38
    endloop
  endfacet
  facet normal 0 0 -1
    outer loop
      vertex 3.54182 1.85889 38
      vertex 13.3301 0.445042 38
      vertex 4 0 38
    endloop
  endfacet
  facet normal 0 0 -1
    outer loop
      vertex 3.54182 -1.85889 38
      vertex 18.2709 -8.13473 38
      vertex 2.27226 -3.29194 38
    endloop
  endfacet
  facet normal 0 0 -1
    outer loop
      vertex 2.27226 3.29194 38
      vertex 19.563 4.15823 38
      vertex 3.54182 1.85889 38
    endloop
  endfacet
  facet normal 0 0 -1
    outer loop
      vertex -2.99404 2.65249 38
      vertex -19.563 4.15823 38
      vertex -1.41842 3.74006 38
    endloop
  endfacet
  facet normal 0 0 -1
    outer loop
      vertex 0.482147 3.97083 38
      vertex 19.563 4.15823 38
      vertex 2.27226 3.29194 38
    endloop
  endfacet
  facet normal 0 0 -1
    outer loop
      vertex -19.563 4.15823 38
      vertex 19.563 4.15823 38
      vertex 0.482147 3.97083 38
    endloop
  endfacet
  facet normal 0 0 -1
    outer loop
      vertex -19.563 4.15823 38
      vertex 0.482147 3.97083 38
      vertex -1.41842 3.74006 38
    endloop
  endfacet
  facet normal 0 0 -1
    outer loop
      vertex -3.88377 0.957263 38
      vertex -19.563 4.15823 38
      vertex -2.99404 2.65249 38
    endloop
  endfacet
  facet normal 0 0 -1
    outer loop
      vertex 13.7163 -1.24698 38
      vertex 4 0 38
      vertex 13.3301 0.445042 38
    endloop
  endfacet
  facet normal 0 0 -1
    outer loop
      vertex 17.2299 0.445042 38
      vertex 20 0 38
      vertex 16.8437 -1.24698 38
    endloop
  endfacet
  facet normal 0 0 -1
    outer loop
      vertex 4 0 38
      vertex 13.7163 -1.24698 38
      vertex 19.563 -4.15823 38
    endloop
  endfacet
  facet normal 0 0 -1
    outer loop
      vertex 16.8437 -1.24698 38
      vertex 20 0 38
      vertex 15.28 -2 38
    endloop
  endfacet
  facet normal 0 0 -1
    outer loop
      vertex 13.7163 -1.24698 38
      vertex 15.28 -2 38
      vertex 19.563 -4.15823 38
    endloop
  endfacet
  facet normal 0 0 -1
    outer loop
      vertex 13.3301 0.445042 38
      vertex 3.54182 1.85889 38
      vertex 14.4122 1.80194 38
    endloop
  endfacet
  facet normal 0 0 -1
    outer loop
      vertex 16.1478 1.80194 38
      vertex 19.563 4.15823 38
      vertex 17.2299 0.445042 38
    endloop
  endfacet
  facet normal 0 0 -1
    outer loop
      vertex 3.54182 1.85889 38
      vertex 19.563 4.15823 38
      vertex 16.1478 1.80194 38
    endloop
  endfacet
  facet normal 0 0 -1
    outer loop
      vertex 3.54182 1.85889 38
      vertex 16.1478 1.80194 38
      vertex 14.4122 1.80194 38
    endloop
  endfacet
  facet normal 0 0 -1
    outer loop
      vertex -9.63441 13.0834 38
      vertex -19.563 4.15823 38
      vertex -9.00035 14.699 38
    endloop
  endfacet
  facet normal 0 0 -1
    outer loop
      vertex -9.50175 -13.9636 38
      vertex -19.563 4.15823 38
      vertex -9.37205 -12.2329 38
    endloop
  endfacet
  facet normal -0.951057 0.309017 0
    outer loop
      vertex -19.563 4.15823 38
      vertex -19.563 4.15823 41
      vertex -18.2709 8.13473 38
    endloop
  endfacet
  facet normal -0.951057 0.309017 0
    outer loop
      vertex -18.2709 8.13473 38
      vertex -19.563 4.15823 41
      vertex -18.2709 8.13473 41
    endloop
  endfacet
  facet normal 0 0 1
    outer loop
      vertex -19.563 4.15823 41
      vertex -20 0 41
      vertex -19.563 -4.15823 41
    endloop
  endfacet
  facet normal 0 0 1
    outer loop
      vertex -16.1803 -11.7557 41
      vertex -19.563 4.15823 41
      vertex -18.2709 -8.13473 41
    endloop
  endfacet
  facet normal 0 0 1
    outer loop
      vertex -18.2709 -8.13473 41
      vertex -19.563 4.15823 41
      vertex -19.563 -4.15823 41
    endloop
  endfacet
  facet normal 0 0 1
    outer loop
      vertex -13.3826 -14.8629 41
      vertex -19.563 4.15823 41
      vertex -16.1803 -11.7557 41
    endloop
  endfacet
  facet normal 0 0 1
    outer loop
      vertex -10 -17.3205 41
      vertex -19.563 4.15823 41
      vertex -13.3826 -14.8629 41
    endloop
  endfacet
  facet normal 0 0 1
    outer loop
      vertex -9.50175 -13.9636 41
      vertex -19.563 4.15823 41
      vertex -10 -17.3205 41
    endloop
  endfacet
  facet normal 0 0 1
    outer loop
      vertex -9.50175 -13.9636 41
      vertex -9.37205 -12.2329 41
      vertex -19.563 4.15823 41
    endloop
  endfacet
  facet normal 0 0 1
    outer loop
      vertex -6.27965 -11.7668 41
      vertex -5.64559 -13.3823 41
      vertex 0 -19.8904 41
    endloop
  endfacet
  facet normal 0 0 1
    outer loop
      vertex 20 -17 41
      vertex -19.563 4.15823 41
      vertex 0 -17 41
    endloop
  endfacet
  facet normal 0 0 1
    outer loop
      vertex -1.41842 -3.74006 41
      vertex -19.563 4.15823 41
      vertex 20 -17 41
    endloop
  endfacet
  facet normal 0 0 1
    outer loop
      vertex -7.05049 11.3217 41
      vertex -19.563 4.15823 41
      vertex 20 17 41
    endloop
  endfacet
  facet normal 0 0 1
    outer loop
      vertex -7.05049 11.3217 41
      vertex -8.76664 11.5804 41
      vertex -19.563 4.15823 41
    endloop
  endfacet
  facet normal 0 0 1
    outer loop
      vertex -5.90795 14.2329 41
      vertex -5.77825 12.5022 41
      vertex 0 17 41
    endloop
  endfacet
  facet normal 0 0 1
    outer loop
      vertex -7.34192 15.2105 41
      vertex 0 19.8904 41
      vertex -2.09057 19.8904 41
    endloop
  endfacet
  facet normal 0 0 1
    outer loop
      vertex -10 17.3205 41
      vertex -19.563 4.15823 41
      vertex -6.18034 19.0211 41
    endloop
  endfacet
  facet normal 0 0 1
    outer loop
      vertex -13.3826 14.8629 41
      vertex -19.563 4.15823 41
      vertex -10 17.3205 41
    endloop
  endfacet
  facet normal 0 0 1
    outer loop
      vertex -16.1803 11.7557 41
      vertex -19.563 4.15823 41
      vertex -13.3826 14.8629 41
    endloop
  endfacet
  facet normal 0 0 1
    outer loop
      vertex -18.2709 8.13473 41
      vertex -19.563 4.15823 41
      vertex -16.1803 11.7557 41
    endloop
  endfacet
  facet normal 0 0 1
    outer loop
      vertex -7.34192 15.2105 41
      vertex -5.90795 14.2329 41
      vertex 0 19.8904 41
    endloop
  endfacet
  facet normal 0 0 1
    outer loop
      vertex -6.18034 19.0211 41
      vertex -9.00035 14.699 41
      vertex -2.09057 19.8904 41
    endloop
  endfacet
  facet normal 0 0 1
    outer loop
      vertex -6.18034 19.0211 41
      vertex -19.563 4.15823 41
      vertex -9.00035 14.699 41
    endloop
  endfacet
  facet normal 0 0 1
    outer loop
      vertex -9.00035 14.699 41
      vertex -7.34192 15.2105 41
      vertex -2.09057 19.8904 41
    endloop
  endfacet
  facet normal 0 0 1
    outer loop
      vertex 0 19.8904 41
      vertex -5.90795 14.2329 41
      vertex 0 17 41
    endloop
  endfacet
  facet normal 0 0 1
    outer loop
      vertex 0 17 41
      vertex -5.77825 12.5022 41
      vertex 20 17 41
    endloop
  endfacet
  facet normal 0 0 1
    outer loop
      vertex -5.77825 12.5022 41
      vertex -7.05049 11.3217 41
      vertex 20 17 41
    endloop
  endfacet
  facet normal 0 0 1
    outer loop
      vertex -8.22951 -15.144 41
      vertex -9.50175 -13.9636 41
      vertex -6.18034 -19.0211 41
    endloop
  endfacet
  facet normal 0 0 1
    outer loop
      vertex -9.37205 -12.2329 41
      vertex -7.93808 -11.2552 41
      vertex -19.563 4.15823 41
    endloop
  endfacet
  facet normal 0 0 1
    outer loop
      vertex -9.63441 13.0834 41
      vertex -9.00035 14.699 41
      vertex -19.563 4.15823 41
    endloop
  endfacet
  facet normal 0 0 1
    outer loop
      vertex -6.18034 -19.0211 41
      vertex -9.50175 -13.9636 41
      vertex -10 -17.3205 41
    endloop
  endfacet
  facet normal 0 0 1
    outer loop
      vertex -2.99404 -2.65249 41
      vertex -3.88377 -0.957263 41
      vertex -19.563 4.15823 41
    endloop
  endfacet
  facet normal 0 0 1
    outer loop
      vertex -7.93808 -11.2552 41
      vertex -6.27965 -11.7668 41
      vertex -19.563 4.15823 41
    endloop
  endfacet
  facet normal 0 0 1
    outer loop
      vertex -6.51336 -14.8853 41
      vertex -6.18034 -19.0211 41
      vertex -2.09057 -19.8904 41
    endloop
  endfacet
  facet normal 0 0 1
    outer loop
      vertex -5.64559 -13.3823 41
      vertex -6.51336 -14.8853 41
      vertex -2.09057 -19.8904 41
    endloop
  endfacet
  facet normal 0 0 1
    outer loop
      vertex 0 -17 41
      vertex -6.27965 -11.7668 41
      vertex 0 -19.8904 41
    endloop
  endfacet
  facet normal 0 0 1
    outer loop
      vertex 0 -17 41
      vertex -19.563 4.15823 41
      vertex -6.27965 -11.7668 41
    endloop
  endfacet
  facet normal 0 0 1
    outer loop
      vertex -6.51336 -14.8853 41
      vertex -8.22951 -15.144 41
      vertex -6.18034 -19.0211 41
    endloop
  endfacet
  facet normal 0 0 1
    outer loop
      vertex -5.64559 -13.3823 41
      vertex -2.09057 -19.8904 41
      vertex 0 -19.8904 41
    endloop
  endfacet
  facet normal 0 0 1
    outer loop
      vertex 0.482147 3.97083 41
      vertex 2.27226 3.29194 41
      vertex 20 17 41
    endloop
  endfacet
  facet normal 0 0 1
    outer loop
      vertex 13.3301 0.445042 41
      vertex 14.4122 1.80194 41
      vertex 20 17 41
    endloop
  endfacet
  facet normal 0 0 1
    outer loop
      vertex -3.88377 0.957263 41
      vertex -19.563 4.15823 41
      vertex -3.88377 -0.957263 41
    endloop
  endfacet
  facet normal 0 0 1
    outer loop
      vertex 3.54182 1.85889 41
      vertex 4 0 41
      vertex 20 -17 41
    endloop
  endfacet
  facet normal 0 0 1
    outer loop
      vertex -2.99404 2.65249 41
      vertex -19.563 4.15823 41
      vertex -3.88377 0.957263 41
    endloop
  endfacet
  facet normal 0 0 1
    outer loop
      vertex -1.41842 3.74006 41
      vertex -19.563 4.15823 41
      vertex -2.99404 2.65249 41
    endloop
  endfacet
  facet normal 0 0 1
    outer loop
      vertex 20 17 41
      vertex -19.563 4.15823 41
      vertex -1.41842 3.74006 41
    endloop
  endfacet
  facet normal 0 0 1
    outer loop
      vertex 16.8437 -1.24698 41
      vertex 15.28 -2 41
      vertex 20 -17 41
    endloop
  endfacet
  facet normal 0 0 1
    outer loop
      vertex 2.27226 -3.29194 41
      vertex 0.482147 -3.97083 41
      vertex 20 -17 41
    endloop
  endfacet
  facet normal 0 0 1
    outer loop
      vertex 13.7163 -1.24698 41
      vertex 3.54182 1.85889 41
      vertex 20 -17 41
    endloop
  endfacet
  facet normal 0 0 1
    outer loop
      vertex 20 17 41
      vertex 2.27226 3.29194 41
      vertex 3.54182 1.85889 41
    endloop
  endfacet
  facet normal 0 0 1
    outer loop
      vertex 4 0 41
      vertex 3.54182 -1.85889 41
      vertex 20 -17 41
    endloop
  endfacet
  facet normal 0 0 1
    outer loop
      vertex 3.54182 -1.85889 41
      vertex 2.27226 -3.29194 41
      vertex 20 -17 41
    endloop
  endfacet
  facet normal 0 0 1
    outer loop
      vertex 0.482147 -3.97083 41
      vertex -1.41842 -3.74006 41
      vertex 20 -17 41
    endloop
  endfacet
  facet normal 0 0 1
    outer loop
      vertex -2.99404 -2.65249 41
      vertex -19.563 4.15823 41
      vertex -1.41842 -3.74006 41
    endloop
  endfacet
  facet normal 0 0 1
    outer loop
      vertex -1.41842 3.74006 41
      vertex 0.482147 3.97083 41
      vertex 20 17 41
    endloop
  endfacet
  facet normal 0 0 1
    outer loop
      vertex 17.2299 0.445042 41
      vertex 16.8437 -1.24698 41
      vertex 20 -17 41
    endloop
  endfacet
  facet normal 0 0 1
    outer loop
      vertex 20 17 41
      vertex 3.54182 1.85889 41
      vertex 13.3301 0.445042 41
    endloop
  endfacet
  facet normal 0 0 1
    outer loop
      vertex 15.28 -2 41
      vertex 13.7163 -1.24698 41
      vertex 20 -17 41
    endloop
  endfacet
  facet normal 0 0 1
    outer loop
      vertex 20 17 41
      vertex 14.4122 1.80194 41
      vertex 16.1478 1.80194 41
    endloop
  endfacet
  facet normal 0 0 1
    outer loop
      vertex 20 17 41
      vertex 17.2299 0.445042 41
      vertex 20 -17 41
    endloop
  endfacet
  facet normal 0 0 1
    outer loop
      vertex 20 17 41
      vertex 16.1478 1.80194 41
      vertex 17.2299 0.445042 41
    endloop
  endfacet
  facet normal 0 0 1
    outer loop
      vertex 13.3301 0.445042 41
      vertex 3.54182 1.85889 41
      vertex 13.7163 -1.24698 41
    endloop
  endfacet
  facet normal 0 0 1
    outer loop
      vertex -8.76664 11.5804 41
      vertex -9.63441 13.0834 41
      vertex -19.563 4.15823 41
    endloop
  endfacet
  facet normal -0.951057 -0.309017 0
    outer loop
      vertex -19.563 -4.15823 38
      vertex -18.2709 -8.13473 38
      vertex -19.563 -4.15823 41
    endloop
  endfacet
  facet normal -0.951057 -0.309017 0
    outer loop
      vertex -19.563 -4.15823 41
      vertex -18.2709 -8.13473 38
      vertex -18.2709 -8.13473 41
    endloop
  endfacet
  facet normal -0.866025 -0.5 0
    outer loop
      vertex -18.2709 -8.13473 38
      vertex -16.1803 -11.7557 38
      vertex -18.2709 -8.13473 41
    endloop
  endfacet
  facet normal -0.866025 -0.5 0
    outer loop
      vertex -18.2709 -8.13473 41
      vertex -16.1803 -11.7557 38
      vertex -16.1803 -11.7557 41
    endloop
  endfacet
  facet normal -0.743145 -0.669131 0
    outer loop
      vertex -16.1803 -11.7557 38
      vertex -13.3826 -14.8629 38
      vertex -16.1803 -11.7557 41
    endloop
  endfacet
  facet normal -0.743145 -0.669131 0
    outer loop
      vertex -16.1803 -11.7557 41
      vertex -13.3826 -14.8629 38
      vertex -13.3826 -14.8629 41
    endloop
  endfacet
  facet normal -0.587785 -0.809017 0
    outer loop
      vertex -13.3826 -14.8629 41
      vertex -13.3826 -14.8629 38
      vertex -10 -17.3205 38
    endloop
  endfacet
  facet normal -0.587785 -0.809017 0
    outer loop
      vertex -10 -17.3205 41
      vertex -13.3826 -14.8629 41
      vertex -10 -17.3205 38
    endloop
  endfacet
  facet normal -0.406737 -0.913545 0
    outer loop
      vertex -10 -17.3205 41
      vertex -10 -17.3205 38
      vertex -6.18034 -19.0211 38
    endloop
  endfacet
  facet normal -0.406737 -0.913545 0
    outer loop
      vertex -6.18034 -19.0211 41
      vertex -10 -17.3205 41
      vertex -6.18034 -19.0211 38
    endloop
  endfacet
  facet normal -0.207912 -0.978148 0
    outer loop
      vertex -6.18034 -19.0211 41
      vertex -6.18034 -19.0211 38
      vertex -2.09057 -19.8904 38
    endloop
  endfacet
  facet normal -0.207912 -0.978148 0
    outer loop
      vertex -2.09057 -19.8904 41
      vertex -6.18034 -19.0211 41
      vertex -2.09057 -19.8904 38
    endloop
  endfacet
  facet normal 0 -1 0
    outer loop
      vertex -2.09057 -19.8904 41
      vertex -2.09057 -19.8904 38
      vertex 0 -19.8904 38
    endloop
  endfacet
  facet normal 0 -1 0
    outer loop
      vertex 0 -19.8904 41
      vertex -2.09057 -19.8904 41
      vertex 0 -19.8904 38
    endloop
  endfacet
  facet normal -1 0 0
    outer loop
      vertex 0 -20 0
      vertex 0 -20 41.1096
      vertex 0 -19.8904 0
    endloop
  endfacet
  facet normal -1 0 0
    outer loop
      vertex 0 -19.8904 41
      vertex 0 -20 41.1096
      vertex 0 -17 41.1096
    endloop
  endfacet
  facet normal -1 0 0
    outer loop
      vertex 0 -19.8904 0
      vertex 0 -20 41.1096
      vertex 0 -19.8904 38
    endloop
  endfacet
  facet normal -1 0 0
    outer loop
      vertex 0 -20 41.1096
      vertex 0 -19.8904 41
      vertex 0 -19.8904 38
    endloop
  endfacet
  facet normal -1 0 0
    outer loop
      vertex 0 -19.8904 41
      vertex 0 -17 41.1096
      vertex 0 -17 41
    endloop
  endfacet
  facet normal 0 1 0
    outer loop
      vertex 2.09057 -19.8904 38
      vertex 2.09057 -19.8904 0
      vertex 0 -19.8904 38
    endloop
  endfacet
  facet normal 0 1 0
    outer loop
      vertex 0 -19.8904 38
      vertex 2.09057 -19.8904 0
      vertex 0 -19.8904 0
    endloop
  endfacet
  facet normal 0 0 -1
    outer loop
      vertex 10.4411 -17 38
      vertex 10 -17.3205 38
      vertex 0 -17 38
    endloop
  endfacet
  facet normal 0 0 -1
    outer loop
      vertex 0 -17 38
      vertex 10 -17.3205 38
      vertex 6.18034 -19.0211 38
    endloop
  endfacet
  facet normal 0 0 -1
    outer loop
      vertex 0 -17 38
      vertex 6.18034 -19.0211 38
      vertex 2.09057 -19.8904 38
    endloop
  endfacet
  facet normal 0 0 -1
    outer loop
      vertex 0 -17 38
      vertex 2.09057 -19.8904 38
      vertex 0 -19.8904 38
    endloop
  endfacet
  facet normal -0.587785 0.809017 0
    outer loop
      vertex 13.3826 -14.8629 38
      vertex 13.3826 -14.8629 0
      vertex 10.4411 -17 38
    endloop
  endfacet
  facet normal -0.587785 0.809017 0
    outer loop
      vertex 10.4411 -17 38
      vertex 13.3826 -14.8629 0
      vertex 10 -17.3205 38
    endloop
  endfacet
  facet normal -0.587785 0.809017 0
    outer loop
      vertex 10 -17.3205 38
      vertex 13.3826 -14.8629 0
      vertex 10 -17.3205 0
    endloop
  endfacet
  facet normal -0.743145 0.669131 0
    outer loop
      vertex 16.1803 -11.7557 38
      vertex 16.1803 -11.7557 0
      vertex 13.3826 -14.8629 38
    endloop
  endfacet
  facet normal -0.743145 0.669131 0
    outer loop
      vertex 13.3826 -14.8629 38
      vertex 16.1803 -11.7557 0
      vertex 13.3826 -14.8629 0
    endloop
  endfacet
  facet normal -0.866025 0.5 0
    outer loop
      vertex 18.2709 -8.13473 38
      vertex 18.2709 -8.13473 0
      vertex 16.1803 -11.7557 38
    endloop
  endfacet
  facet normal -0.866025 0.5 0
    outer loop
      vertex 16.1803 -11.7557 38
      vertex 18.2709 -8.13473 0
      vertex 16.1803 -11.7557 0
    endloop
  endfacet
  facet normal -0.951057 0.309017 0
    outer loop
      vertex 19.563 -4.15823 38
      vertex 19.563 -4.15823 0
      vertex 18.2709 -8.13473 38
    endloop
  endfacet
  facet normal -0.951057 0.309017 0
    outer loop
      vertex 18.2709 -8.13473 38
      vertex 19.563 -4.15823 0
      vertex 18.2709 -8.13473 0
    endloop
  endfacet
  facet normal -0.994522 0.104528 0
    outer loop
      vertex 20 0 38
      vertex 20 0 0
      vertex 19.563 -4.15823 38
    endloop
  endfacet
  facet normal -0.994522 0.104528 0
    outer loop
      vertex 19.563 -4.15823 38
      vertex 20 0 0
      vertex 19.563 -4.15823 0
    endloop
  endfacet
  facet normal -0.994522 -0.104528 0
    outer loop
      vertex 20 0 38
      vertex 19.563 4.15823 38
      vertex 20 0 0
    endloop
  endfacet
  facet normal -0.994522 -0.104528 0
    outer loop
      vertex 20 0 0
      vertex 19.563 4.15823 38
      vertex 19.563 4.15823 0
    endloop
  endfacet
  facet normal -0.951057 -0.309017 0
    outer loop
      vertex 19.563 4.15823 38
      vertex 18.2709 8.13473 38
      vertex 19.563 4.15823 0
    endloop
  endfacet
  facet normal -0.951057 -0.309017 0
    outer loop
      vertex 19.563 4.15823 0
      vertex 18.2709 8.13473 38
      vertex 18.2709 8.13473 0
    endloop
  endfacet
  facet normal -0.866025 -0.5 0
    outer loop
      vertex 18.2709 8.13473 38
      vertex 16.1803 11.7557 38
      vertex 18.2709 8.13473 0
    endloop
  endfacet
  facet normal -0.866025 -0.5 0
    outer loop
      vertex 18.2709 8.13473 0
      vertex 16.1803 11.7557 38
      vertex 16.1803 11.7557 0
    endloop
  endfacet
  facet normal -0.743145 -0.669131 0
    outer loop
      vertex 16.1803 11.7557 38
      vertex 13.3826 14.8629 38
      vertex 16.1803 11.7557 0
    endloop
  endfacet
  facet normal -0.743145 -0.669131 0
    outer loop
      vertex 16.1803 11.7557 0
      vertex 13.3826 14.8629 38
      vertex 13.3826 14.8629 0
    endloop
  endfacet
  facet normal -0.587785 -0.809017 0
    outer loop
      vertex 13.3826 14.8629 0
      vertex 13.3826 14.8629 38
      vertex 10.4411 17 38
    endloop
  endfacet
  facet normal -0.587785 -0.809017 0
    outer loop
      vertex 10 17.3205 0
      vertex 13.3826 14.8629 0
      vertex 10 17.3205 38
    endloop
  endfacet
  facet normal -0.587785 -0.809017 0
    outer loop
      vertex 10 17.3205 38
      vertex 13.3826 14.8629 0
      vertex 10.4411 17 38
    endloop
  endfacet
  facet normal 0 0 -1
    outer loop
      vertex 2.09057 19.8904 38
      vertex 6.18034 19.0211 38
      vertex 0 19.8904 38
    endloop
  endfacet
  facet normal 0 0 -1
    outer loop
      vertex 0 19.8904 38
      vertex 6.18034 19.0211 38
      vertex 10 17.3205 38
    endloop
  endfacet
  facet normal 0 0 -1
    outer loop
      vertex 0 19.8904 38
      vertex 10 17.3205 38
      vertex 10.4411 17 38
    endloop
  endfacet
  facet normal 0 0 -1
    outer loop
      vertex 0 19.8904 38
      vertex 10.4411 17 38
      vertex 0 17 38
    endloop
  endfacet
  facet normal 0 -1 0
    outer loop
      vertex 0 19.8904 38
      vertex 0 19.8904 0
      vertex 2.09057 19.8904 0
    endloop
  endfacet
  facet normal 0 -1 0
    outer loop
      vertex 2.09057 19.8904 38
      vertex 0 19.8904 38
      vertex 2.09057 19.8904 0
    endloop
  endfacet
  facet normal -1 0 0
    outer loop
      vertex 0 17 41
      vertex 0 17 41.1096
      vertex 0 19.8904 41
    endloop
  endfacet
  facet normal -1 0 0
    outer loop
      vertex 0 19.8904 41
      vertex 0 17 41.1096
      vertex 0 20 41.1096
    endloop
  endfacet
  facet normal -1 0 0
    outer loop
      vertex 0 20 41.1096
      vertex 0 20 58
      vertex 0 20 0
    endloop
  endfacet
  facet normal -1 0 0
    outer loop
      vertex 0 20 41.1096
      vertex 0 20 0
      vertex 0 19.8904 41
    endloop
  endfacet
  facet normal -1 0 0
    outer loop
      vertex 0 19.8904 41
      vertex 0 20 0
      vertex 0 19.8904 38
    endloop
  endfacet
  facet normal -1 0 0
    outer loop
      vertex 0 19.8904 38
      vertex 0 20 0
      vertex 0 19.8904 0
    endloop
  endfacet
  facet normal 0 1 0
    outer loop
      vertex -2.09057 19.8904 38
      vertex -2.09057 19.8904 41
      vertex 0 19.8904 38
    endloop
  endfacet
  facet normal 0 1 0
    outer loop
      vertex 0 19.8904 38
      vertex -2.09057 19.8904 41
      vertex 0 19.8904 41
    endloop
  endfacet
  facet normal -0.207912 0.978148 0
    outer loop
      vertex -6.18034 19.0211 38
      vertex -6.18034 19.0211 41
      vertex -2.09057 19.8904 38
    endloop
  endfacet
  facet normal -0.207912 0.978148 0
    outer loop
      vertex -2.09057 19.8904 38
      vertex -6.18034 19.0211 41
      vertex -2.09057 19.8904 41
    endloop
  endfacet
  facet normal -0.406737 0.913545 0
    outer loop
      vertex -10 17.3205 38
      vertex -10 17.3205 41
      vertex -6.18034 19.0211 38
    endloop
  endfacet
  facet normal -0.406737 0.913545 0
    outer loop
      vertex -6.18034 19.0211 38
      vertex -10 17.3205 41
      vertex -6.18034 19.0211 41
    endloop
  endfacet
  facet normal -0.587785 0.809017 0
    outer loop
      vertex -13.3826 14.8629 38
      vertex -13.3826 14.8629 41
      vertex -10 17.3205 38
    endloop
  endfacet
  facet normal -0.587785 0.809017 0
    outer loop
      vertex -10 17.3205 38
      vertex -13.3826 14.8629 41
      vertex -10 17.3205 41
    endloop
  endfacet
  facet normal -0.743145 0.669131 0
    outer loop
      vertex -16.1803 11.7557 38
      vertex -16.1803 11.7557 41
      vertex -13.3826 14.8629 38
    endloop
  endfacet
  facet normal -0.743145 0.669131 0
    outer loop
      vertex -13.3826 14.8629 38
      vertex -16.1803 11.7557 41
      vertex -13.3826 14.8629 41
    endloop
  endfacet
  facet normal -0.866025 0.5 0
    outer loop
      vertex -18.2709 8.13473 38
      vertex -18.2709 8.13473 41
      vertex -16.1803 11.7557 38
    endloop
  endfacet
  facet normal -0.866025 0.5 0
    outer loop
      vertex -16.1803 11.7557 38
      vertex -18.2709 8.13473 41
      vertex -16.1803 11.7557 41
    endloop
  endfacet
  facet normal 0.930874 -0.365341 0
    outer loop
      vertex -9.00035 14.699 38
      vertex -9.00035 14.699 41
      vertex -9.63441 13.0834 41
    endloop
  endfacet
  facet normal 0.930874 -0.365341 0
    outer loop
      vertex -9.63441 13.0834 38
      vertex -9.00035 14.699 38
      vertex -9.63441 13.0834 41
    endloop
  endfacet
  facet normal 0.866025 0.5 0
    outer loop
      vertex -9.63441 13.0834 41
      vertex -8.76664 11.5804 41
      vertex -8.76664 11.5804 38
    endloop
  endfacet
  facet normal 0.866025 0.5 0
    outer loop
      vertex -9.63441 13.0834 38
      vertex -9.63441 13.0834 41
      vertex -8.76664 11.5804 38
    endloop
  endfacet
  facet normal 0.294755 -0.955573 0
    outer loop
      vertex -7.34192 15.2105 38
      vertex -7.34192 15.2105 41
      vertex -9.00035 14.699 41
    endloop
  endfacet
  facet normal 0.294755 -0.955573 0
    outer loop
      vertex -9.00035 14.699 38
      vertex -7.34192 15.2105 38
      vertex -9.00035 14.699 41
    endloop
  endfacet
  facet normal -0.56332 -0.826239 0
    outer loop
      vertex -5.90795 14.2329 38
      vertex -5.90795 14.2329 41
      vertex -7.34192 15.2105 41
    endloop
  endfacet
  facet normal -0.56332 -0.826239 0
    outer loop
      vertex -7.34192 15.2105 38
      vertex -5.90795 14.2329 38
      vertex -7.34192 15.2105 41
    endloop
  endfacet
  facet normal -0.997204 -0.0747303 0
    outer loop
      vertex -5.77825 12.5022 41
      vertex -5.90795 14.2329 41
      vertex -5.77825 12.5022 38
    endloop
  endfacet
  facet normal -0.997204 -0.0747303 0
    outer loop
      vertex -5.77825 12.5022 38
      vertex -5.90795 14.2329 41
      vertex -5.90795 14.2329 38
    endloop
  endfacet
  facet normal -0.680173 0.733052 0
    outer loop
      vertex -5.77825 12.5022 41
      vertex -5.77825 12.5022 38
      vertex -7.05049 11.3217 41
    endloop
  endfacet
  facet normal -0.680173 0.733052 0
    outer loop
      vertex -7.05049 11.3217 41
      vertex -5.77825 12.5022 38
      vertex -7.05049 11.3217 38
    endloop
  endfacet
  facet normal 0.149043 0.988831 0
    outer loop
      vertex -7.05049 11.3217 41
      vertex -7.05049 11.3217 38
      vertex -8.76664 11.5804 41
    endloop
  endfacet
  facet normal 0.149043 0.988831 0
    outer loop
      vertex -8.76664 11.5804 41
      vertex -7.05049 11.3217 38
      vertex -8.76664 11.5804 38
    endloop
  endfacet
  facet normal 0.997204 -0.0747303 0
    outer loop
      vertex -9.37205 -12.2329 38
      vertex -9.37205 -12.2329 41
      vertex -9.50175 -13.9636 41
    endloop
  endfacet
  facet normal 0.997204 -0.0747303 0
    outer loop
      vertex -9.50175 -13.9636 38
      vertex -9.37205 -12.2329 38
      vertex -9.50175 -13.9636 41
    endloop
  endfacet
  facet normal 0.680173 0.733052 0
    outer loop
      vertex -8.22951 -15.144 41
      vertex -8.22951 -15.144 38
      vertex -9.50175 -13.9636 41
    endloop
  endfacet
  facet normal 0.680173 0.733052 0
    outer loop
      vertex -9.50175 -13.9636 41
      vertex -8.22951 -15.144 38
      vertex -9.50175 -13.9636 38
    endloop
  endfacet
  facet normal 0.56332 -0.826239 0
    outer loop
      vertex -7.93808 -11.2552 38
      vertex -7.93808 -11.2552 41
      vertex -9.37205 -12.2329 41
    endloop
  endfacet
  facet normal 0.56332 -0.826239 0
    outer loop
      vertex -9.37205 -12.2329 38
      vertex -7.93808 -11.2552 38
      vertex -9.37205 -12.2329 41
    endloop
  endfacet
  facet normal -0.294755 -0.955573 0
    outer loop
      vertex -6.27965 -11.7668 38
      vertex -6.27965 -11.7668 41
      vertex -7.93808 -11.2552 41
    endloop
  endfacet
  facet normal -0.294755 -0.955573 0
    outer loop
      vertex -7.93808 -11.2552 38
      vertex -6.27965 -11.7668 38
      vertex -7.93808 -11.2552 41
    endloop
  endfacet
  facet normal -0.930874 -0.365341 0
    outer loop
      vertex -5.64559 -13.3823 41
      vertex -6.27965 -11.7668 41
      vertex -5.64559 -13.3823 38
    endloop
  endfacet
  facet normal -0.930874 -0.365341 0
    outer loop
      vertex -5.64559 -13.3823 38
      vertex -6.27965 -11.7668 41
      vertex -6.27965 -11.7668 38
    endloop
  endfacet
  facet normal -0.866025 0.5 0
    outer loop
      vertex -5.64559 -13.3823 41
      vertex -5.64559 -13.3823 38
      vertex -6.51336 -14.8853 41
    endloop
  endfacet
  facet normal -0.866025 0.5 0
    outer loop
      vertex -6.51336 -14.8853 41
      vertex -5.64559 -13.3823 38
      vertex -6.51336 -14.8853 38
    endloop
  endfacet
  facet normal -0.149043 0.988831 0
    outer loop
      vertex -6.51336 -14.8853 41
      vertex -6.51336 -14.8853 38
      vertex -8.22951 -15.144 41
    endloop
  endfacet
  facet normal -0.149043 0.988831 0
    outer loop
      vertex -8.22951 -15.144 41
      vertex -6.51336 -14.8853 38
      vertex -8.22951 -15.144 38
    endloop
  endfacet
  facet normal 0.885456 0.464723 0
    outer loop
      vertex -3.88377 -0.957263 41
      vertex -2.99404 -2.65249 41
      vertex -2.99404 -2.65249 38
    endloop
  endfacet
  facet normal 0.885456 0.464723 0
    outer loop
      vertex -3.88377 -0.957263 38
      vertex -3.88377 -0.957263 41
      vertex -2.99404 -2.65249 38
    endloop
  endfacet
  facet normal 1 0 0
    outer loop
      vertex -3.88377 0.957263 38
      vertex -3.88377 0.957263 41
      vertex -3.88377 -0.957263 41
    endloop
  endfacet
  facet normal 1 0 0
    outer loop
      vertex -3.88377 -0.957263 38
      vertex -3.88377 0.957263 38
      vertex -3.88377 -0.957263 41
    endloop
  endfacet
  facet normal 0.885456 -0.464723 0
    outer loop
      vertex -2.99404 2.65249 38
      vertex -2.99404 2.65249 41
      vertex -3.88377 0.957263 41
    endloop
  endfacet
  facet normal 0.885456 -0.464723 0
    outer loop
      vertex -3.88377 0.957263 38
      vertex -2.99404 2.65249 38
      vertex -3.88377 0.957263 41
    endloop
  endfacet
  facet normal 0.568065 -0.822984 0
    outer loop
      vertex -1.41842 3.74006 38
      vertex -1.41842 3.74006 41
      vertex -2.99404 2.65249 41
    endloop
  endfacet
  facet normal 0.568065 -0.822984 0
    outer loop
      vertex -2.99404 2.65249 38
      vertex -1.41842 3.74006 38
      vertex -2.99404 2.65249 41
    endloop
  endfacet
  facet normal 0.120536 -0.992709 0
    outer loop
      vertex 0.482147 3.97083 38
      vertex 0.482147 3.97083 41
      vertex -1.41842 3.74006 41
    endloop
  endfacet
  facet normal 0.120536 -0.992709 0
    outer loop
      vertex -1.41842 3.74006 38
      vertex 0.482147 3.97083 38
      vertex -1.41842 3.74006 41
    endloop
  endfacet
  facet normal -0.354605 -0.935016 0
    outer loop
      vertex 2.27226 3.29194 38
      vertex 2.27226 3.29194 41
      vertex 0.482147 3.97083 41
    endloop
  endfacet
  facet normal -0.354605 -0.935016 0
    outer loop
      vertex 0.482147 3.97083 38
      vertex 2.27226 3.29194 38
      vertex 0.482147 3.97083 41
    endloop
  endfacet
  facet normal -0.748511 -0.663123 0
    outer loop
      vertex 3.54182 1.85889 41
      vertex 2.27226 3.29194 41
      vertex 3.54182 1.85889 38
    endloop
  endfacet
  facet normal -0.748511 -0.663123 0
    outer loop
      vertex 3.54182 1.85889 38
      vertex 2.27226 3.29194 41
      vertex 2.27226 3.29194 38
    endloop
  endfacet
  facet normal -0.970942 -0.239316 0
    outer loop
      vertex 4 0 41
      vertex 3.54182 1.85889 41
      vertex 4 0 38
    endloop
  endfacet
  facet normal -0.970942 -0.239316 0
    outer loop
      vertex 4 0 38
      vertex 3.54182 1.85889 41
      vertex 3.54182 1.85889 38
    endloop
  endfacet
  facet normal -0.970942 0.239316 0
    outer loop
      vertex 4 0 41
      vertex 4 0 38
      vertex 3.54182 -1.85889 41
    endloop
  endfacet
  facet normal -0.970942 0.239316 0
    outer loop
      vertex 3.54182 -1.85889 41
      vertex 4 0 38
      vertex 3.54182 -1.85889 38
    endloop
  endfacet
  facet normal -0.748511 0.663123 0
    outer loop
      vertex 3.54182 -1.85889 41
      vertex 3.54182 -1.85889 38
      vertex 2.27226 -3.29194 41
    endloop
  endfacet
  facet normal -0.748511 0.663123 0
    outer loop
      vertex 2.27226 -3.29194 41
      vertex 3.54182 -1.85889 38
      vertex 2.27226 -3.29194 38
    endloop
  endfacet
  facet normal -0.354605 0.935016 0
    outer loop
      vertex 2.27226 -3.29194 41
      vertex 2.27226 -3.29194 38
      vertex 0.482147 -3.97083 41
    endloop
  endfacet
  facet normal -0.354605 0.935016 0
    outer loop
      vertex 0.482147 -3.97083 41
      vertex 2.27226 -3.29194 38
      vertex 0.482147 -3.97083 38
    endloop
  endfacet
  facet normal 0.120536 0.992709 0
    outer loop
      vertex 0.482147 -3.97083 41
      vertex 0.482147 -3.97083 38
      vertex -1.41842 -3.74006 41
    endloop
  endfacet
  facet normal 0.120536 0.992709 0
    outer loop
      vertex -1.41842 -3.74006 41
      vertex 0.482147 -3.97083 38
      vertex -1.41842 -3.74006 38
    endloop
  endfacet
  facet normal 0.568065 0.822984 0
    outer loop
      vertex -1.41842 -3.74006 41
      vertex -1.41842 -3.74006 38
      vertex -2.99404 -2.65249 41
    endloop
  endfacet
  facet normal 0.568065 0.822984 0
    outer loop
      vertex -2.99404 -2.65249 41
      vertex -1.41842 -3.74006 38
      vertex -2.99404 -2.65249 38
    endloop
  endfacet
  facet normal 0.781831 -0.62349 0
    outer loop
      vertex 14.4122 1.80194 38
      vertex 14.4122 1.80194 41
      vertex 13.3301 0.445042 41
    endloop
  endfacet
  facet normal 0.781831 -0.62349 0
    outer loop
      vertex 13.3301 0.445042 38
      vertex 14.4122 1.80194 38
      vertex 13.3301 0.445042 41
    endloop
  endfacet
  facet normal 6.12323e-17 -1 0
    outer loop
      vertex 16.1478 1.80194 38
      vertex 16.1478 1.80194 41
      vertex 14.4122 1.80194 41
    endloop
  endfacet
  facet normal 6.12323e-17 -1 0
    outer loop
      vertex 14.4122 1.80194 38
      vertex 16.1478 1.80194 38
      vertex 14.4122 1.80194 41
    endloop
  endfacet
  facet normal -0.781831 -0.62349 0
    outer loop
      vertex 17.2299 0.445042 41
      vertex 16.1478 1.80194 41
      vertex 17.2299 0.445042 38
    endloop
  endfacet
  facet normal -0.781831 -0.62349 0
    outer loop
      vertex 17.2299 0.445042 38
      vertex 16.1478 1.80194 41
      vertex 16.1478 1.80194 38
    endloop
  endfacet
  facet normal -0.974928 0.222521 0
    outer loop
      vertex 17.2299 0.445042 41
      vertex 17.2299 0.445042 38
      vertex 16.8437 -1.24698 41
    endloop
  endfacet
  facet normal -0.974928 0.222521 0
    outer loop
      vertex 16.8437 -1.24698 41
      vertex 17.2299 0.445042 38
      vertex 16.8437 -1.24698 38
    endloop
  endfacet
  facet normal -0.433884 0.900969 0
    outer loop
      vertex 16.8437 -1.24698 41
      vertex 16.8437 -1.24698 38
      vertex 15.28 -2 41
    endloop
  endfacet
  facet normal -0.433884 0.900969 0
    outer loop
      vertex 15.28 -2 41
      vertex 16.8437 -1.24698 38
      vertex 15.28 -2 38
    endloop
  endfacet
  facet normal 0.433884 0.900969 0
    outer loop
      vertex 15.28 -2 41
      vertex 15.28 -2 38
      vertex 13.7163 -1.24698 41
    endloop
  endfacet
  facet normal 0.433884 0.900969 0
    outer loop
      vertex 13.7163 -1.24698 41
      vertex 15.28 -2 38
      vertex 13.7163 -1.24698 38
    endloop
  endfacet
  facet normal 0.974928 0.222521 0
    outer loop
      vertex 13.3301 0.445042 41
      vertex 13.7163 -1.24698 41
      vertex 13.7163 -1.24698 38
    endloop
  endfacet
  facet normal 0.974928 0.222521 0
    outer loop
      vertex 13.3301 0.445042 38
      vertex 13.3301 0.445042 41
      vertex 13.7163 -1.24698 38
    endloop
  endfacet
  facet normal 0 -1 0
    outer loop
      vertex 0 17 41.1096
      vertex 0 17 41
      vertex 20 17 41
    endloop
  endfacet
  facet normal 0 -1 0
    outer loop
      vertex 2.09057 17 41.1096
      vertex 0 17 41.1096
      vertex 20 17 41
    endloop
  endfacet
  facet normal 0 -1 0
    outer loop
      vertex 20 17 58
      vertex 19.563 17 56.8418
      vertex 20 17 41
    endloop
  endfacet
  facet normal 0 -1 0
    outer loop
      vertex 19.563 17 56.8418
      vertex 18.2709 17 52.8653
      vertex 20 17 41
    endloop
  endfacet
  facet normal 0 -1 0
    outer loop
      vertex 18.2709 17 52.8653
      vertex 16.1803 17 49.2443
      vertex 20 17 41
    endloop
  endfacet
  facet normal 0 -1 0
    outer loop
      vertex 16.1803 17 49.2443
      vertex 13.3826 17 46.1371
      vertex 20 17 41
    endloop
  endfacet
  facet normal 0 -1 0
    outer loop
      vertex 13.3826 17 46.1371
      vertex 10 17 43.6795
      vertex 20 17 41
    endloop
  endfacet
  facet normal 0 -1 0
    outer loop
      vertex 10 17 43.6795
      vertex 6.18034 17 41.9789
      vertex 20 17 41
    endloop
  endfacet
  facet normal 0 -1 0
    outer loop
      vertex 6.18034 17 41.9789
      vertex 2.09057 17 41.1096
      vertex 20 17 41
    endloop
  endfacet
  facet normal 0 -1 0
    outer loop
      vertex 19.6847 17 58
      vertex 19.563 17 56.8418
      vertex 20 17 58
    endloop
  endfacet
  facet normal -1 0 0
    outer loop
      vertex 20 12.4268 65
      vertex 20 20 58
      vertex 20 -20 71
    endloop
  endfacet
  facet normal -1 0 0
    outer loop
      vertex 20 -20 71
      vertex 20 20 58
      vertex 20 17 58
    endloop
  endfacet
  facet normal -1 0 0
    outer loop
      vertex 20 -12.4268 65
      vertex 20 17 58
      vertex 20 17 41
    endloop
  endfacet
  facet normal -1 0 0
    outer loop
      vertex 20 -17 58
      vertex 20 17 41
      vertex 20 -17 41
    endloop
  endfacet
  facet normal -1 0 0
    outer loop
      vertex 20 -18.1332 65
      vertex 20 17 41
      vertex 20 -17 58
    endloop
  endfacet
  facet normal -1 0 0
    outer loop
      vertex 20 15.28 68
      vertex 20 20 71
      vertex 20 17.0434 67.4271
    endloop
  endfacet
  facet normal -1 0 0
    outer loop
      vertex 20 -12.4268 65
      vertex 20 17 41
      vertex 20 -18.1332 65
    endloop
  endfacet
  facet normal -1 0 0
    outer loop
      vertex 20 -20 71
      vertex 20 -18.1332 65
      vertex 20 -17 58
    endloop
  endfacet
  facet normal -1 0 0
    outer loop
      vertex 20 -12.4268 65.9271
      vertex 20 17 58
      vertex 20 -12.4268 65
    endloop
  endfacet
  facet normal -1 0 0
    outer loop
      vertex 20 -17.0434 67.4271
      vertex 20 -20 71
      vertex 20 -15.28 68
    endloop
  endfacet
  facet normal -1 0 0
    outer loop
      vertex 20 -13.5166 67.4271
      vertex 20 17 58
      vertex 20 -12.4268 65.9271
    endloop
  endfacet
  facet normal -1 0 0
    outer loop
      vertex 20 -20 71
      vertex 20 17 58
      vertex 20 -13.5166 67.4271
    endloop
  endfacet
  facet normal -1 0 0
    outer loop
      vertex 20 -20 71
      vertex 20 -13.5166 67.4271
      vertex 20 -15.28 68
    endloop
  endfacet
  facet normal -1 0 0
    outer loop
      vertex 20 -20 71
      vertex 20 -17.0434 67.4271
      vertex 20 -18.1332 65.9271
    endloop
  endfacet
  facet normal -1 0 0
    outer loop
      vertex 20 -20 71
      vertex 20 -18.1332 65.9271
      vertex 20 -18.1332 65
    endloop
  endfacet
  facet normal -1 0 0
    outer loop
      vertex 20 18.1332 65
      vertex 20 20 58
      vertex 20 12.4268 65
    endloop
  endfacet
  facet normal -1 0 0
    outer loop
      vertex 20 12.4268 65.9271
      vertex 20 12.4268 65
      vertex 20 -20 71
    endloop
  endfacet
  facet normal -1 0 0
    outer loop
      vertex 20 20 71
      vertex 20 20 58
      vertex 20 18.1332 65
    endloop
  endfacet
  facet normal -1 0 0
    outer loop
      vertex 20 20 71
      vertex 20 18.1332 65
      vertex 20 18.1332 65.9271
    endloop
  endfacet
  facet normal -1 0 0
    outer loop
      vertex 20 20 71
      vertex 20 18.1332 65.9271
      vertex 20 17.0434 67.4271
    endloop
  endfacet
  facet normal -1 0 0
    outer loop
      vertex 20 20 71
      vertex 20 15.28 68
      vertex 20 -20 71
    endloop
  endfacet
  facet normal -1 0 0
    outer loop
      vertex 20 15.28 68
      vertex 20 13.5166 67.4271
      vertex 20 -20 71
    endloop
  endfacet
  facet normal -1 0 0
    outer loop
      vertex 20 13.5166 67.4271
      vertex 20 12.4268 65.9271
      vertex 20 -20 71
    endloop
  endfacet
  facet normal -1 0 0
    outer loop
      vertex 20 -20 58
      vertex 20 -20 71
      vertex 20 -17 58
    endloop
  endfacet
  facet normal 0 1 0
    outer loop
      vertex 0 -17 41
      vertex 0 -17 41.1096
      vertex 20 -17 41
    endloop
  endfacet
  facet normal 0 1 0
    outer loop
      vertex 20 -17 41
      vertex 0 -17 41.1096
      vertex 2.09057 -17 41.1096
    endloop
  endfacet
  facet normal 0 1 0
    outer loop
      vertex 20 -17 41
      vertex 2.09057 -17 41.1096
      vertex 6.18034 -17 41.9789
    endloop
  endfacet
  facet normal 0 1 0
    outer loop
      vertex 6.18034 -17 41.9789
      vertex 10 -17 43.6795
      vertex 20 -17 41
    endloop
  endfacet
  facet normal 0 1 0
    outer loop
      vertex 10 -17 43.6795
      vertex 13.3826 -17 46.1371
      vertex 20 -17 41
    endloop
  endfacet
  facet normal 0 1 0
    outer loop
      vertex 13.3826 -17 46.1371
      vertex 16.1803 -17 49.2443
      vertex 20 -17 41
    endloop
  endfacet
  facet normal 0 1 0
    outer loop
      vertex 16.1803 -17 49.2443
      vertex 18.2709 -17 52.8653
      vertex 20 -17 41
    endloop
  endfacet
  facet normal 0 1 0
    outer loop
      vertex 18.2709 -17 52.8653
      vertex 19.563 -17 56.8418
      vertex 20 -17 41
    endloop
  endfacet
  facet normal 0 1 0
    outer loop
      vertex 19.563 -17 56.8418
      vertex 19.6847 -17 58
      vertex 20 -17 41
    endloop
  endfacet
  facet normal 0 1 0
    outer loop
      vertex 20 -17 41
      vertex 19.6847 -17 58
      vertex 20 -17 58
    endloop
  endfacet
  facet normal 0 0 -1
    outer loop
      vertex 0 -20 0
      vertex 0 -19.8904 0
      vertex 20 -20 0
    endloop
  endfacet
  facet normal 0 0 -1
    outer loop
      vertex 20 -20 0
      vertex 0 -19.8904 0
      vertex 2.09057 -19.8904 0
    endloop
  endfacet
  facet normal 0 0 -1
    outer loop
      vertex 20 -20 0
      vertex 2.09057 -19.8904 0
      vertex 6.18034 -19.0211 0
    endloop
  endfacet
  facet normal 0 0 -1
    outer loop
      vertex 6.18034 -19.0211 0
      vertex 10 -17.3205 0
      vertex 20 -20 0
    endloop
  endfacet
  facet normal 0 0 -1
    outer loop
      vertex 10 -17.3205 0
      vertex 13.3826 -14.8629 0
      vertex 20 -20 0
    endloop
  endfacet
  facet normal 0 0 -1
    outer loop
      vertex 13.3826 -14.8629 0
      vertex 16.1803 -11.7557 0
      vertex 20 -20 0
    endloop
  endfacet
  facet normal 0 0 -1
    outer loop
      vertex 16.1803 -11.7557 0
      vertex 18.2709 -8.13473 0
      vertex 20 -20 0
    endloop
  endfacet
  facet normal 0 0 -1
    outer loop
      vertex 18.2709 -8.13473 0
      vertex 19.563 -4.15823 0
      vertex 20 -20 0
    endloop
  endfacet
  facet normal 0 0 -1
    outer loop
      vertex 19.563 -4.15823 0
      vertex 20 0 0
      vertex 20 -20 0
    endloop
  endfacet
  facet normal 0 2.22045e-16 1
    outer loop
      vertex 2.09057 -20 41.1096
      vertex 2.09057 -17 41.1096
      vertex 0 -17 41.1096
    endloop
  endfacet
  facet normal 0 2.22045e-16 1
    outer loop
      vertex 0 -20 41.1096
      vertex 2.09057 -20 41.1096
      vertex 0 -17 41.1096
    endloop
  endfacet
  facet normal 0 -1 0
    outer loop
      vertex 0 -20 41.1096
      vertex 0 -20 0
      vertex 20 -20 0
    endloop
  endfacet
  facet normal 0 -1 0
    outer loop
      vertex 2.09057 -20 41.1096
      vertex 0 -20 41.1096
      vertex 20 -20 0
    endloop
  endfacet
  facet normal 0 -1 0
    outer loop
      vertex 20 -20 -27
      vertex 23 -20 -27
      vertex 20 -20 0
    endloop
  endfacet
  facet normal 0 -1 0
    outer loop
      vertex 23 -20 -27
      vertex 23 -20 71
      vertex 20 -20 0
    endloop
  endfacet
  facet normal 0 -1 0
    outer loop
      vertex 23 -20 71
      vertex 20 -20 58
      vertex 20 -20 0
    endloop
  endfacet
  facet normal 0 -1 0
    outer loop
      vertex 19.6847 -20 58
      vertex 19.563 -20 56.8418
      vertex 20 -20 58
    endloop
  endfacet
  facet normal 0 -1 0
    outer loop
      vertex 20 -20 58
      vertex 19.563 -20 56.8418
      vertex 20 -20 0
    endloop
  endfacet
  facet normal 0 -1 0
    outer loop
      vertex 19.563 -20 56.8418
      vertex 18.2709 -20 52.8653
      vertex 20 -20 0
    endloop
  endfacet
  facet normal 0 -1 0
    outer loop
      vertex 18.2709 -20 52.8653
      vertex 16.1803 -20 49.2443
      vertex 20 -20 0
    endloop
  endfacet
  facet normal 0 -1 0
    outer loop
      vertex 16.1803 -20 49.2443
      vertex 13.3826 -20 46.1371
      vertex 20 -20 0
    endloop
  endfacet
  facet normal 0 -1 0
    outer loop
      vertex 13.3826 -20 46.1371
      vertex 10 -20 43.6795
      vertex 20 -20 0
    endloop
  endfacet
  facet normal 0 -1 0
    outer loop
      vertex 10 -20 43.6795
      vertex 6.18034 -20 41.9789
      vertex 20 -20 0
    endloop
  endfacet
  facet normal 0 -1 0
    outer loop
      vertex 6.18034 -20 41.9789
      vertex 2.09057 -20 41.1096
      vertex 20 -20 0
    endloop
  endfacet
  facet normal 0 -1 0
    outer loop
      vertex 20 -20 71
      vertex 20 -20 58
      vertex 23 -20 71
    endloop
  endfacet
  facet normal -0.207912 0.978148 0
    outer loop
      vertex 6.18034 -19.0211 38
      vertex 6.18034 -19.0211 0
      vertex 2.09057 -19.8904 38
    endloop
  endfacet
  facet normal -0.207912 0.978148 0
    outer loop
      vertex 2.09057 -19.8904 38
      vertex 6.18034 -19.0211 0
      vertex 2.09057 -19.8904 0
    endloop
  endfacet
  facet normal -0.406737 0.913545 0
    outer loop
      vertex 10 -17.3205 38
      vertex 10 -17.3205 0
      vertex 6.18034 -19.0211 38
    endloop
  endfacet
  facet normal -0.406737 0.913545 0
    outer loop
      vertex 6.18034 -19.0211 38
      vertex 10 -17.3205 0
      vertex 6.18034 -19.0211 0
    endloop
  endfacet
  facet normal -1 0 0
    outer loop
      vertex 20 12.4268 -15
      vertex 20 20 -27
      vertex 20 0 0
    endloop
  endfacet
  facet normal -1 0 0
    outer loop
      vertex 20 0 0
      vertex 20 20 -27
      vertex 20 -20 0
    endloop
  endfacet
  facet normal -1 0 0
    outer loop
      vertex 20 -18.1332 -15
      vertex 20 20 -27
      vertex 20 -20 -27
    endloop
  endfacet
  facet normal -1 0 0
    outer loop
      vertex 20 -12.4268 -15
      vertex 20 20 -27
      vertex 20 -18.1332 -15
    endloop
  endfacet
  facet normal -1 0 0
    outer loop
      vertex 20 -20 0
      vertex 20 -18.1332 -15
      vertex 20 -20 -27
    endloop
  endfacet
  facet normal -1 0 0
    outer loop
      vertex 20 -12.4268 -14.0729
      vertex 20 20 -27
      vertex 20 -12.4268 -15
    endloop
  endfacet
  facet normal -1 0 0
    outer loop
      vertex 20 -20 0
      vertex 20 20 -27
      vertex 20 -12.4268 -14.0729
    endloop
  endfacet
  facet normal -1 0 0
    outer loop
      vertex 20 -20 0
      vertex 20 -12.4268 -14.0729
      vertex 20 -13.5166 -12.5729
    endloop
  endfacet
  facet normal -1 0 0
    outer loop
      vertex 20 13.5166 -12.5729
      vertex 20 20 0
      vertex 20 15.28 -12
    endloop
  endfacet
  facet normal -1 0 0
    outer loop
      vertex 20 -20 0
      vertex 20 -15.28 -12
      vertex 20 -17.0434 -12.5729
    endloop
  endfacet
  facet normal -1 0 0
    outer loop
      vertex 20 -20 0
      vertex 20 -17.0434 -12.5729
      vertex 20 -18.1332 -14.0729
    endloop
  endfacet
  facet normal -1 0 0
    outer loop
      vertex 20 -20 0
      vertex 20 -18.1332 -14.0729
      vertex 20 -18.1332 -15
    endloop
  endfacet
  facet normal -1 0 0
    outer loop
      vertex 20 18.1332 -15
      vertex 20 20 -27
      vertex 20 12.4268 -15
    endloop
  endfacet
  facet normal -1 0 0
    outer loop
      vertex 20 12.4268 -14.0729
      vertex 20 12.4268 -15
      vertex 20 0 0
    endloop
  endfacet
  facet normal -1 0 0
    outer loop
      vertex 20 20 0
      vertex 20 20 -27
      vertex 20 18.1332 -15
    endloop
  endfacet
  facet normal -1 0 0
    outer loop
      vertex 20 20 0
      vertex 20 18.1332 -15
      vertex 20 18.1332 -14.0729
    endloop
  endfacet
  facet normal -1 0 0
    outer loop
      vertex 20 20 0
      vertex 20 18.1332 -14.0729
      vertex 20 17.0434 -12.5729
    endloop
  endfacet
  facet normal -1 0 0
    outer loop
      vertex 20 20 0
      vertex 20 17.0434 -12.5729
      vertex 20 15.28 -12
    endloop
  endfacet
  facet normal -1 0 0
    outer loop
      vertex 20 20 0
      vertex 20 13.5166 -12.5729
      vertex 20 0 0
    endloop
  endfacet
  facet normal -1 0 0
    outer loop
      vertex 20 13.5166 -12.5729
      vertex 20 12.4268 -14.0729
      vertex 20 0 0
    endloop
  endfacet
  facet normal -1 0 0
    outer loop
      vertex 20 -15.28 -12
      vertex 20 -20 0
      vertex 20 -13.5166 -12.5729
    endloop
  endfacet
  facet normal 0 0 -1
    outer loop
      vertex 0 19.8904 0
      vertex 0 20 0
      vertex 2.09057 19.8904 0
    endloop
  endfacet
  facet normal 0 0 -1
    outer loop
      vertex 2.09057 19.8904 0
      vertex 0 20 0
      vertex 20 20 0
    endloop
  endfacet
  facet normal 0 0 -1
    outer loop
      vertex 19.563 4.15823 0
      vertex 20 20 0
      vertex 20 0 0
    endloop
  endfacet
  facet normal 0 0 -1
    outer loop
      vertex 18.2709 8.13473 0
      vertex 20 20 0
      vertex 19.563 4.15823 0
    endloop
  endfacet
  facet normal 0 0 -1
    outer loop
      vertex 16.1803 11.7557 0
      vertex 20 20 0
      vertex 18.2709 8.13473 0
    endloop
  endfacet
  facet normal 0 0 -1
    outer loop
      vertex 13.3826 14.8629 0
      vertex 20 20 0
      vertex 16.1803 11.7557 0
    endloop
  endfacet
  facet normal 0 0 -1
    outer loop
      vertex 10 17.3205 0
      vertex 20 20 0
      vertex 13.3826 14.8629 0
    endloop
  endfacet
  facet normal 0 0 -1
    outer loop
      vertex 6.18034 19.0211 0
      vertex 20 20 0
      vertex 10 17.3205 0
    endloop
  endfacet
  facet normal 0 0 -1
    outer loop
      vertex 2.09057 19.8904 0
      vertex 20 20 0
      vertex 6.18034 19.0211 0
    endloop
  endfacet
  facet normal -0.406737 -0.913545 0
    outer loop
      vertex 10 17.3205 0
      vertex 10 17.3205 38
      vertex 6.18034 19.0211 38
    endloop
  endfacet
  facet normal -0.406737 -0.913545 0
    outer loop
      vertex 6.18034 19.0211 0
      vertex 10 17.3205 0
      vertex 6.18034 19.0211 38
    endloop
  endfacet
  facet normal -0.207912 -0.978148 0
    outer loop
      vertex 6.18034 19.0211 0
      vertex 6.18034 19.0211 38
      vertex 2.09057 19.8904 38
    endloop
  endfacet
  facet normal -0.207912 -0.978148 0
    outer loop
      vertex 2.09057 19.8904 0
      vertex 6.18034 19.0211 0
      vertex 2.09057 19.8904 38
    endloop
  endfacet
  facet normal 0 1 0
    outer loop
      vertex 0 20 0
      vertex 0 20 58
      vertex 20 20 0
    endloop
  endfacet
  facet normal 0 1 0
    outer loop
      vertex 20 20 0
      vertex 0 20 58
      vertex 20 20 58
    endloop
  endfacet
  facet normal 0 1 0
    outer loop
      vertex 20 20 58
      vertex 20 20 71
      vertex 23 20 71
    endloop
  endfacet
  facet normal 0 1 0
    outer loop
      vertex 20 20 58
      vertex 23 20 71
      vertex 20 20 0
    endloop
  endfacet
  facet normal 0 1 0
    outer loop
      vertex 20 20 0
      vertex 23 20 71
      vertex 23 20 -27
    endloop
  endfacet
  facet normal 0 1 0
    outer loop
      vertex 20 20 0
      vertex 23 20 -27
      vertex 20 20 -27
    endloop
  endfacet
  facet normal 0 0 1
    outer loop
      vertex 20 20 58
      vertex 0 20 58
      vertex 19.6847 20 58
    endloop
  endfacet
  facet normal 0 0 1
    outer loop
      vertex 19.6847 17 58
      vertex 20 17 58
      vertex 19.6847 20 58
    endloop
  endfacet
  facet normal 0 0 1
    outer loop
      vertex 20 17 58
      vertex 20 20 58
      vertex 19.6847 20 58
    endloop
  endfacet
  facet normal 0 -1 2.22045e-16
    outer loop
      vertex 2.09057 20 41.1096
      vertex 6.18034 20 41.9789
      vertex 10 20 43.6795
    endloop
  endfacet
  facet normal 0 -1 2.22045e-16
    outer loop
      vertex 16.1803 20 49.2443
      vertex 2.09057 20 41.1096
      vertex 13.3826 20 46.1371
    endloop
  endfacet
  facet normal 0 -1 2.22045e-16
    outer loop
      vertex 13.3826 20 46.1371
      vertex 2.09057 20 41.1096
      vertex 10 20 43.6795
    endloop
  endfacet
  facet normal 0 -1 2.22045e-16
    outer loop
      vertex 18.2709 20 52.8653
      vertex 2.09057 20 41.1096
      vertex 16.1803 20 49.2443
    endloop
  endfacet
  facet normal 0 -1 2.22045e-16
    outer loop
      vertex 19.563 20 56.8418
      vertex 2.09057 20 41.1096
      vertex 18.2709 20 52.8653
    endloop
  endfacet
  facet normal 0 -1 2.22045e-16
    outer loop
      vertex 19.6847 20 58
      vertex 2.09057 20 41.1096
      vertex 19.563 20 56.8418
    endloop
  endfacet
  facet normal 0 -1 2.22045e-16
    outer loop
      vertex 0 20 58
      vertex 2.09057 20 41.1096
      vertex 19.6847 20 58
    endloop
  endfacet
  facet normal 0 -1 2.22045e-16
    outer loop
      vertex 0 20 41.1096
      vertex 2.09057 20 41.1096
      vertex 0 20 58
    endloop
  endfacet
  facet normal 0 2.22045e-16 1
    outer loop
      vertex 2.09057 17 41.1096
      vertex 2.09057 20 41.1096
      vertex 0 20 41.1096
    endloop
  endfacet
  facet normal 0 2.22045e-16 1
    outer loop
      vertex 0 17 41.1096
      vertex 2.09057 17 41.1096
      vertex 0 20 41.1096
    endloop
  endfacet
  facet normal -0.207912 2.17192e-16 0.978148
    outer loop
      vertex 6.18034 17 41.9789
      vertex 6.18034 20 41.9789
      vertex 2.09057 20 41.1096
    endloop
  endfacet
  facet normal -0.207912 2.17192e-16 0.978148
    outer loop
      vertex 2.09057 17 41.1096
      vertex 6.18034 17 41.9789
      vertex 2.09057 20 41.1096
    endloop
  endfacet
  facet normal -0.406737 2.02848e-16 0.913545
    outer loop
      vertex 10 17 43.6795
      vertex 10 20 43.6795
      vertex 6.18034 20 41.9789
    endloop
  endfacet
  facet normal -0.406737 2.02848e-16 0.913545
    outer loop
      vertex 6.18034 17 41.9789
      vertex 10 17 43.6795
      vertex 6.18034 20 41.9789
    endloop
  endfacet
  facet normal -0.587785 1.79638e-16 0.809017
    outer loop
      vertex 13.3826 17 46.1371
      vertex 13.3826 20 46.1371
      vertex 10 20 43.6795
    endloop
  endfacet
  facet normal -0.587785 1.79638e-16 0.809017
    outer loop
      vertex 10 17 43.6795
      vertex 13.3826 17 46.1371
      vertex 10 20 43.6795
    endloop
  endfacet
  facet normal -0.743145 1.48577e-16 0.669131
    outer loop
      vertex 16.1803 20 49.2443
      vertex 13.3826 20 46.1371
      vertex 16.1803 17 49.2443
    endloop
  endfacet
  facet normal -0.743145 1.48577e-16 0.669131
    outer loop
      vertex 16.1803 17 49.2443
      vertex 13.3826 20 46.1371
      vertex 13.3826 17 46.1371
    endloop
  endfacet
  facet normal -0.866025 1.11022e-16 0.5
    outer loop
      vertex 18.2709 20 52.8653
      vertex 16.1803 20 49.2443
      vertex 18.2709 17 52.8653
    endloop
  endfacet
  facet normal -0.866025 1.11022e-16 0.5
    outer loop
      vertex 18.2709 17 52.8653
      vertex 16.1803 20 49.2443
      vertex 16.1803 17 49.2443
    endloop
  endfacet
  facet normal -0.951057 6.86156e-17 0.309017
    outer loop
      vertex 19.563 20 56.8418
      vertex 18.2709 20 52.8653
      vertex 19.563 17 56.8418
    endloop
  endfacet
  facet normal -0.951057 6.86156e-17 0.309017
    outer loop
      vertex 19.563 17 56.8418
      vertex 18.2709 20 52.8653
      vertex 18.2709 17 52.8653
    endloop
  endfacet
  facet normal -0.994522 2.321e-17 0.104528
    outer loop
      vertex 19.6847 20 58
      vertex 19.563 20 56.8418
      vertex 19.6847 17 58
    endloop
  endfacet
  facet normal -0.994522 2.321e-17 0.104528
    outer loop
      vertex 19.6847 17 58
      vertex 19.563 20 56.8418
      vertex 19.563 17 56.8418
    endloop
  endfacet
  facet normal 0 0 1
    outer loop
      vertex 20 20 71
      vertex 20 -20 71
      vertex 23 -20 71
    endloop
  endfacet
  facet normal 0 0 1
    outer loop
      vertex 23 20 71
      vertex 20 20 71
      vertex 23 -20 71
    endloop
  endfacet
  facet normal 0 0 1
    outer loop
      vertex 19.6847 -17 58
      vertex 19.6847 -20 58
      vertex 20 -20 58
    endloop
  endfacet
  facet normal 0 0 1
    outer loop
      vertex 20 -17 58
      vertex 19.6847 -17 58
      vertex 20 -20 58
    endloop
  endfacet
  facet normal 1 0 2.22045e-16
    outer loop
      vertex 20 -18.1332 64.0729
      vertex 20 -17.0434 62.5729
      vertex 20 -15.28 62
    endloop
  endfacet
  facet normal 1 0 2.22045e-16
    outer loop
      vertex 20 -12.4268 64.0729
      vertex 20 -18.1332 64.0729
      vertex 20 -13.5166 62.5729
    endloop
  endfacet
  facet normal 1 0 2.22045e-16
    outer loop
      vertex 20 -13.5166 62.5729
      vertex 20 -18.1332 64.0729
      vertex 20 -15.28 62
    endloop
  endfacet
  facet normal 1 0 2.22045e-16
    outer loop
      vertex 20 -12.4268 65
      vertex 20 -18.1332 64.0729
      vertex 20 -12.4268 64.0729
    endloop
  endfacet
  facet normal 1 0 2.22045e-16
    outer loop
      vertex 20 -18.1332 65
      vertex 20 -18.1332 64.0729
      vertex 20 -12.4268 65
    endloop
  endfacet
  facet normal 0 1 0
    outer loop
      vertex 23 -18.1332 65.9271
      vertex 23 -18.1332 64.0729
      vertex 20 -18.1332 65.9271
    endloop
  endfacet
  facet normal 0 1 0
    outer loop
      vertex 20 -18.1332 65.9271
      vertex 23 -18.1332 64.0729
      vertex 20 -18.1332 64.0729
    endloop
  endfacet
  facet normal 0 1 0
    outer loop
      vertex 20 -18.1332 65.9271
      vertex 20 -18.1332 64.0729
      vertex 20 -18.1332 65
    endloop
  endfacet
  facet normal 1.30515e-16 0.809017 -0.587785
    outer loop
      vertex 23 -17.0434 67.4271
      vertex 23 -18.1332 65.9271
      vertex 20 -17.0434 67.4271
    endloop
  endfacet
  facet normal 1.30515e-16 0.809017 -0.587785
    outer loop
      vertex 20 -17.0434 67.4271
      vertex 23 -18.1332 65.9271
      vertex 20 -18.1332 65.9271
    endloop
  endfacet
  facet normal 2.11177e-16 0.309017 -0.951057
    outer loop
      vertex 23 -15.28 68
      vertex 23 -17.0434 67.4271
      vertex 20 -15.28 68
    endloop
  endfacet
  facet normal 2.11177e-16 0.309017 -0.951057
    outer loop
      vertex 20 -15.28 68
      vertex 23 -17.0434 67.4271
      vertex 20 -17.0434 67.4271
    endloop
  endfacet
  facet normal 2.11177e-16 -0.309017 -0.951057
    outer loop
      vertex 23 -13.5166 67.4271
      vertex 23 -15.28 68
      vertex 20 -13.5166 67.4271
    endloop
  endfacet
  facet normal 2.11177e-16 -0.309017 -0.951057
    outer loop
      vertex 20 -13.5166 67.4271
      vertex 23 -15.28 68
      vertex 20 -15.28 68
    endloop
  endfacet
  facet normal 1.30515e-16 -0.809017 -0.587785
    outer loop
      vertex 20 -12.4268 65.9271
      vertex 23 -12.4268 65.9271
      vertex 23 -13.5166 67.4271
    endloop
  endfacet
  facet normal 1.30515e-16 -0.809017 -0.587785
    outer loop
      vertex 20 -13.5166 67.4271
      vertex 20 -12.4268 65.9271
      vertex 23 -13.5166 67.4271
    endloop
  endfacet
  facet normal 0 -1 0
    outer loop
      vertex 20 -12.4268 64.0729
      vertex 23 -12.4268 64.0729
      vertex 23 -12.4268 65.9271
    endloop
  endfacet
  facet normal 0 -1 0
    outer loop
      vertex 20 -12.4268 65
      vertex 20 -12.4268 64.0729
      vertex 20 -12.4268 65.9271
    endloop
  endfacet
  facet normal 0 -1 0
    outer loop
      vertex 20 -12.4268 65.9271
      vertex 20 -12.4268 64.0729
      vertex 23 -12.4268 65.9271
    endloop
  endfacet
  facet normal 1 0 2.22045e-16
    outer loop
      vertex 20 12.4268 64.0729
      vertex 20 13.5166 62.5729
      vertex 20 15.28 62
    endloop
  endfacet
  facet normal 1 0 2.22045e-16
    outer loop
      vertex 20 18.1332 64.0729
      vertex 20 12.4268 64.0729
      vertex 20 17.0434 62.5729
    endloop
  endfacet
  facet normal 1 0 2.22045e-16
    outer loop
      vertex 20 17.0434 62.5729
      vertex 20 12.4268 64.0729
      vertex 20 15.28 62
    endloop
  endfacet
  facet normal 1 0 2.22045e-16
    outer loop
      vertex 20 18.1332 65
      vertex 20 12.4268 64.0729
      vertex 20 18.1332 64.0729
    endloop
  endfacet
  facet normal 1 0 2.22045e-16
    outer loop
      vertex 20 12.4268 65
      vertex 20 12.4268 64.0729
      vertex 20 18.1332 65
    endloop
  endfacet
  facet normal 0 1 0
    outer loop
      vertex 23 12.4268 65.9271
      vertex 23 12.4268 64.0729
      vertex 20 12.4268 65.9271
    endloop
  endfacet
  facet normal 0 1 0
    outer loop
      vertex 20 12.4268 65.9271
      vertex 23 12.4268 64.0729
      vertex 20 12.4268 64.0729
    endloop
  endfacet
  facet normal 0 1 0
    outer loop
      vertex 20 12.4268 65.9271
      vertex 20 12.4268 64.0729
      vertex 20 12.4268 65
    endloop
  endfacet
  facet normal 1.30515e-16 0.809017 -0.587785
    outer loop
      vertex 23 13.5166 67.4271
      vertex 23 12.4268 65.9271
      vertex 20 13.5166 67.4271
    endloop
  endfacet
  facet normal 1.30515e-16 0.809017 -0.587785
    outer loop
      vertex 20 13.5166 67.4271
      vertex 23 12.4268 65.9271
      vertex 20 12.4268 65.9271
    endloop
  endfacet
  facet normal 2.11177e-16 0.309017 -0.951057
    outer loop
      vertex 23 15.28 68
      vertex 23 13.5166 67.4271
      vertex 20 15.28 68
    endloop
  endfacet
  facet normal 2.11177e-16 0.309017 -0.951057
    outer loop
      vertex 20 15.28 68
      vertex 23 13.5166 67.4271
      vertex 20 13.5166 67.4271
    endloop
  endfacet
  facet normal 2.11177e-16 -0.309017 -0.951057
    outer loop
      vertex 23 17.0434 67.4271
      vertex 23 15.28 68
      vertex 20 17.0434 67.4271
    endloop
  endfacet
  facet normal 2.11177e-16 -0.309017 -0.951057
    outer loop
      vertex 20 17.0434 67.4271
      vertex 23 15.28 68
      vertex 20 15.28 68
    endloop
  endfacet
  facet normal 1.30515e-16 -0.809017 -0.587785
    outer loop
      vertex 20 18.1332 65.9271
      vertex 23 18.1332 65.9271
      vertex 23 17.0434 67.4271
    endloop
  endfacet
  facet normal 1.30515e-16 -0.809017 -0.587785
    outer loop
      vertex 20 17.0434 67.4271
      vertex 20 18.1332 65.9271
      vertex 23 17.0434 67.4271
    endloop
  endfacet
  facet normal 0 -1 0
    outer loop
      vertex 20 18.1332 64.0729
      vertex 23 18.1332 64.0729
      vertex 23 18.1332 65.9271
    endloop
  endfacet
  facet normal 0 -1 0
    outer loop
      vertex 20 18.1332 65
      vertex 20 18.1332 64.0729
      vertex 20 18.1332 65.9271
    endloop
  endfacet
  facet normal 0 -1 0
    outer loop
      vertex 20 18.1332 65.9271
      vertex 20 18.1332 64.0729
      vertex 23 18.1332 65.9271
    endloop
  endfacet
  facet normal -0.994522 2.321e-17 0.104528
    outer loop
      vertex 19.6847 -17 58
      vertex 19.563 -17 56.8418
      vertex 19.6847 -20 58
    endloop
  endfacet
  facet normal -0.994522 2.321e-17 0.104528
    outer loop
      vertex 19.6847 -20 58
      vertex 19.563 -17 56.8418
      vertex 19.563 -20 56.8418
    endloop
  endfacet
  facet normal -0.951057 6.86156e-17 0.309017
    outer loop
      vertex 19.563 -17 56.8418
      vertex 18.2709 -17 52.8653
      vertex 19.563 -20 56.8418
    endloop
  endfacet
  facet normal -0.951057 6.86156e-17 0.309017
    outer loop
      vertex 19.563 -20 56.8418
      vertex 18.2709 -17 52.8653
      vertex 18.2709 -20 52.8653
    endloop
  endfacet
  facet normal -0.866025 1.11022e-16 0.5
    outer loop
      vertex 18.2709 -17 52.8653
      vertex 16.1803 -17 49.2443
      vertex 18.2709 -20 52.8653
    endloop
  endfacet
  facet normal -0.866025 1.11022e-16 0.5
    outer loop
      vertex 18.2709 -20 52.8653
      vertex 16.1803 -17 49.2443
      vertex 16.1803 -20 49.2443
    endloop
  endfacet
  facet normal -0.743145 1.48577e-16 0.669131
    outer loop
      vertex 16.1803 -17 49.2443
      vertex 13.3826 -17 46.1371
      vertex 16.1803 -20 49.2443
    endloop
  endfacet
  facet normal -0.743145 1.48577e-16 0.669131
    outer loop
      vertex 16.1803 -20 49.2443
      vertex 13.3826 -17 46.1371
      vertex 13.3826 -20 46.1371
    endloop
  endfacet
  facet normal -0.587785 1.79638e-16 0.809017
    outer loop
      vertex 13.3826 -20 46.1371
      vertex 13.3826 -17 46.1371
      vertex 10 -17 43.6795
    endloop
  endfacet
  facet normal -0.587785 1.79638e-16 0.809017
    outer loop
      vertex 10 -20 43.6795
      vertex 13.3826 -20 46.1371
      vertex 10 -17 43.6795
    endloop
  endfacet
  facet normal -0.406737 2.02848e-16 0.913545
    outer loop
      vertex 10 -20 43.6795
      vertex 10 -17 43.6795
      vertex 6.18034 -17 41.9789
    endloop
  endfacet
  facet normal -0.406737 2.02848e-16 0.913545
    outer loop
      vertex 6.18034 -20 41.9789
      vertex 10 -20 43.6795
      vertex 6.18034 -17 41.9789
    endloop
  endfacet
  facet normal -0.207912 2.17192e-16 0.978148
    outer loop
      vertex 6.18034 -20 41.9789
      vertex 6.18034 -17 41.9789
      vertex 2.09057 -17 41.1096
    endloop
  endfacet
  facet normal -0.207912 2.17192e-16 0.978148
    outer loop
      vertex 2.09057 -20 41.1096
      vertex 6.18034 -20 41.9789
      vertex 2.09057 -17 41.1096
    endloop
  endfacet
  facet normal 1 0 0
    outer loop
      vertex 23 -13.5166 -17.4271
      vertex 23 -20 -27
      vertex 23 20 -27
    endloop
  endfacet
  facet normal 1 0 0
    outer loop
      vertex 23 -15.28 68
      vertex 23 -13.5166 67.4271
      vertex 23 20 71
    endloop
  endfacet
  facet normal 1 0 0
    outer loop
      vertex 23 -20 71
      vertex 23 -20 -27
      vertex 23 -18.1332 -15.9271
    endloop
  endfacet
  facet normal 1 0 0
    outer loop
      vertex 23 -18.1332 65.9271
      vertex 23 -17.0434 67.4271
      vertex 23 -20 71
    endloop
  endfacet
  facet normal 1 0 0
    outer loop
      vertex 23 -20 71
      vertex 23 -18.1332 -15.9271
      vertex 23 -18.1332 -14.0729
    endloop
  endfacet
  facet normal 1 0 0
    outer loop
      vertex 23 -20 71
      vertex 23 -18.1332 -14.0729
      vertex 23 -17.0434 -12.5729
    endloop
  endfacet
  facet normal 1 0 0
    outer loop
      vertex 23 -12.4268 -14.0729
      vertex 23 -12.4268 -15.9271
      vertex 23 20 -27
    endloop
  endfacet
  facet normal 1 0 0
    outer loop
      vertex 23 -20 71
      vertex 23 -17.0434 -12.5729
      vertex 23 -15.28 -12
    endloop
  endfacet
  facet normal 1 0 0
    outer loop
      vertex 23 12.4268 -15.9271
      vertex 23 -13.5166 -12.5729
      vertex 23 20 -27
    endloop
  endfacet
  facet normal 1 0 0
    outer loop
      vertex 23 -20 71
      vertex 23 -15.28 -12
      vertex 23 -13.5166 -12.5729
    endloop
  endfacet
  facet normal 1 0 0
    outer loop
      vertex 23 13.5166 -12.5729
      vertex 23 -17.0434 62.5729
      vertex 23 -18.1332 64.0729
    endloop
  endfacet
  facet normal 1 0 0
    outer loop
      vertex 23 -15.28 -18
      vertex 23 -20 -27
      vertex 23 -13.5166 -17.4271
    endloop
  endfacet
  facet normal 1 0 0
    outer loop
      vertex 23 -17.0434 -17.4271
      vertex 23 -20 -27
      vertex 23 -15.28 -18
    endloop
  endfacet
  facet normal 1 0 0
    outer loop
      vertex 23 -18.1332 -15.9271
      vertex 23 -20 -27
      vertex 23 -17.0434 -17.4271
    endloop
  endfacet
  facet normal 1 0 0
    outer loop
      vertex 23 -20 71
      vertex 23 -13.5166 -12.5729
      vertex 23 -18.1332 64.0729
    endloop
  endfacet
  facet normal 1 0 0
    outer loop
      vertex 23 13.5166 -12.5729
      vertex 23 -15.28 62
      vertex 23 -17.0434 62.5729
    endloop
  endfacet
  facet normal 1 0 0
    outer loop
      vertex 23 -20 71
      vertex 23 -18.1332 64.0729
      vertex 23 -18.1332 65.9271
    endloop
  endfacet
  facet normal 1 0 0
    outer loop
      vertex 23 -15.28 68
      vertex 23 -20 71
      vertex 23 -17.0434 67.4271
    endloop
  endfacet
  facet normal 1 0 0
    outer loop
      vertex 23 18.1332 -15.9271
      vertex 23 17.0434 -17.4271
      vertex 23 20 -27
    endloop
  endfacet
  facet normal 1 0 0
    outer loop
      vertex 23 20 71
      vertex 23 -20 71
      vertex 23 -15.28 68
    endloop
  endfacet
  facet normal 1 0 0
    outer loop
      vertex 23 20 71
      vertex 23 -13.5166 67.4271
      vertex 23 -12.4268 65.9271
    endloop
  endfacet
  facet normal 1 0 0
    outer loop
      vertex 23 17.0434 -17.4271
      vertex 23 15.28 -18
      vertex 23 20 -27
    endloop
  endfacet
  facet normal 1 0 0
    outer loop
      vertex 23 15.28 -18
      vertex 23 13.5166 -17.4271
      vertex 23 20 -27
    endloop
  endfacet
  facet normal 1 0 0
    outer loop
      vertex 23 13.5166 -17.4271
      vertex 23 12.4268 -15.9271
      vertex 23 20 -27
    endloop
  endfacet
  facet normal 1 0 0
    outer loop
      vertex 23 -18.1332 64.0729
      vertex 23 -13.5166 -12.5729
      vertex 23 12.4268 -15.9271
    endloop
  endfacet
  facet normal 1 0 0
    outer loop
      vertex 23 -18.1332 64.0729
      vertex 23 12.4268 -15.9271
      vertex 23 12.4268 -14.0729
    endloop
  endfacet
  facet normal 1 0 0
    outer loop
      vertex 23 -18.1332 64.0729
      vertex 23 12.4268 -14.0729
      vertex 23 13.5166 -12.5729
    endloop
  endfacet
  facet normal 1 0 0
    outer loop
      vertex 23 15.28 68
      vertex 23 17.0434 67.4271
      vertex 23 20 71
    endloop
  endfacet
  facet normal 1 0 0
    outer loop
      vertex 23 12.4268 64.0729
      vertex 23 -12.4268 65.9271
      vertex 23 15.28 -12
    endloop
  endfacet
  facet normal 1 0 0
    outer loop
      vertex 23 20 71
      vertex 23 15.28 -12
      vertex 23 17.0434 -12.5729
    endloop
  endfacet
  facet normal 1 0 0
    outer loop
      vertex 23 20 71
      vertex 23 18.1332 -14.0729
      vertex 23 20 -27
    endloop
  endfacet
  facet normal 1 0 0
    outer loop
      vertex 23 20 71
      vertex 23 17.0434 -12.5729
      vertex 23 18.1332 -14.0729
    endloop
  endfacet
  facet normal 1 0 0
    outer loop
      vertex 23 18.1332 -14.0729
      vertex 23 18.1332 -15.9271
      vertex 23 20 -27
    endloop
  endfacet
  facet normal 1 0 0
    outer loop
      vertex 23 13.5166 62.5729
      vertex 23 12.4268 64.0729
      vertex 23 15.28 -12
    endloop
  endfacet
  facet normal 1 0 0
    outer loop
      vertex 23 12.4268 65.9271
      vertex 23 -12.4268 65.9271
      vertex 23 12.4268 64.0729
    endloop
  endfacet
  facet normal 1 0 0
    outer loop
      vertex 23 18.1332 64.0729
      vertex 23 17.0434 62.5729
      vertex 23 15.28 -12
    endloop
  endfacet
  facet normal 1 0 0
    outer loop
      vertex 23 13.5166 67.4271
      vertex 23 -12.4268 65.9271
      vertex 23 12.4268 65.9271
    endloop
  endfacet
  facet normal 1 0 0
    outer loop
      vertex 23 20 71
      vertex 23 -12.4268 65.9271
      vertex 23 13.5166 67.4271
    endloop
  endfacet
  facet normal 1 0 0
    outer loop
      vertex 23 20 71
      vertex 23 13.5166 67.4271
      vertex 23 15.28 68
    endloop
  endfacet
  facet normal 1 0 0
    outer loop
      vertex 23 17.0434 62.5729
      vertex 23 15.28 62
      vertex 23 15.28 -12
    endloop
  endfacet
  facet normal 1 0 0
    outer loop
      vertex 23 20 71
      vertex 23 17.0434 67.4271
      vertex 23 18.1332 65.9271
    endloop
  endfacet
  facet normal 1 0 0
    outer loop
      vertex 23 20 71
      vertex 23 18.1332 64.0729
      vertex 23 15.28 -12
    endloop
  endfacet
  facet normal 1 0 0
    outer loop
      vertex 23 20 71
      vertex 23 18.1332 65.9271
      vertex 23 18.1332 64.0729
    endloop
  endfacet
  facet normal 1 0 0
    outer loop
      vertex 23 15.28 62
      vertex 23 13.5166 62.5729
      vertex 23 15.28 -12
    endloop
  endfacet
  facet normal 1 0 0
    outer loop
      vertex 23 -13.5166 -12.5729
      vertex 23 -12.4268 -14.0729
      vertex 23 20 -27
    endloop
  endfacet
  facet normal 1 0 0
    outer loop
      vertex 23 -12.4268 -15.9271
      vertex 23 -13.5166 -17.4271
      vertex 23 20 -27
    endloop
  endfacet
  facet normal 1 0 0
    outer loop
      vertex 23 13.5166 -12.5729
      vertex 23 -13.5166 62.5729
      vertex 23 -15.28 62
    endloop
  endfacet
  facet normal 1 0 0
    outer loop
      vertex 23 13.5166 -12.5729
      vertex 23 -12.4268 64.0729
      vertex 23 -13.5166 62.5729
    endloop
  endfacet
  facet normal 1 0 0
    outer loop
      vertex 23 13.5166 -12.5729
      vertex 23 -12.4268 65.9271
      vertex 23 -12.4268 64.0729
    endloop
  endfacet
  facet normal 1 0 0
    outer loop
      vertex 23 13.5166 -12.5729
      vertex 23 15.28 -12
      vertex 23 -12.4268 65.9271
    endloop
  endfacet
  facet normal 0 0 -1
    outer loop
      vertex 20 -20 -27
      vertex 20 20 -27
      vertex 23 -20 -27
    endloop
  endfacet
  facet normal 0 0 -1
    outer loop
      vertex 23 -20 -27
      vertex 20 20 -27
      vertex 23 20 -27
    endloop
  endfacet
  facet normal 1 0 2.22045e-16
    outer loop
      vertex 20 -18.1332 -15.9271
      vertex 20 -17.0434 -17.4271
      vertex 20 -15.28 -18
    endloop
  endfacet
  facet normal 1 0 2.22045e-16
    outer loop
      vertex 20 -12.4268 -15.9271
      vertex 20 -18.1332 -15.9271
      vertex 20 -13.5166 -17.4271
    endloop
  endfacet
  facet normal 1 0 2.22045e-16
    outer loop
      vertex 20 -13.5166 -17.4271
      vertex 20 -18.1332 -15.9271
      vertex 20 -15.28 -18
    endloop
  endfacet
  facet normal 1 0 2.22045e-16
    outer loop
      vertex 20 -12.4268 -15
      vertex 20 -18.1332 -15.9271
      vertex 20 -12.4268 -15.9271
    endloop
  endfacet
  facet normal 1 0 2.22045e-16
    outer loop
      vertex 20 -18.1332 -15
      vertex 20 -18.1332 -15.9271
      vertex 20 -12.4268 -15
    endloop
  endfacet
  facet normal 0 1 0
    outer loop
      vertex 23 -18.1332 -14.0729
      vertex 23 -18.1332 -15.9271
      vertex 20 -18.1332 -14.0729
    endloop
  endfacet
  facet normal 0 1 0
    outer loop
      vertex 20 -18.1332 -14.0729
      vertex 23 -18.1332 -15.9271
      vertex 20 -18.1332 -15.9271
    endloop
  endfacet
  facet normal 0 1 0
    outer loop
      vertex 20 -18.1332 -14.0729
      vertex 20 -18.1332 -15.9271
      vertex 20 -18.1332 -15
    endloop
  endfacet
  facet normal 1.30515e-16 0.809017 -0.587785
    outer loop
      vertex 23 -17.0434 -12.5729
      vertex 23 -18.1332 -14.0729
      vertex 20 -17.0434 -12.5729
    endloop
  endfacet
  facet normal 1.30515e-16 0.809017 -0.587785
    outer loop
      vertex 20 -17.0434 -12.5729
      vertex 23 -18.1332 -14.0729
      vertex 20 -18.1332 -14.0729
    endloop
  endfacet
  facet normal 2.11177e-16 0.309017 -0.951057
    outer loop
      vertex 23 -15.28 -12
      vertex 23 -17.0434 -12.5729
      vertex 20 -15.28 -12
    endloop
  endfacet
  facet normal 2.11177e-16 0.309017 -0.951057
    outer loop
      vertex 20 -15.28 -12
      vertex 23 -17.0434 -12.5729
      vertex 20 -17.0434 -12.5729
    endloop
  endfacet
  facet normal 2.11177e-16 -0.309017 -0.951057
    outer loop
      vertex 23 -13.5166 -12.5729
      vertex 23 -15.28 -12
      vertex 20 -13.5166 -12.5729
    endloop
  endfacet
  facet normal 2.11177e-16 -0.309017 -0.951057
    outer loop
      vertex 20 -13.5166 -12.5729
      vertex 23 -15.28 -12
      vertex 20 -15.28 -12
    endloop
  endfacet
  facet normal 1.30515e-16 -0.809017 -0.587785
    outer loop
      vertex 20 -12.4268 -14.0729
      vertex 23 -12.4268 -14.0729
      vertex 23 -13.5166 -12.5729
    endloop
  endfacet
  facet normal 1.30515e-16 -0.809017 -0.587785
    outer loop
      vertex 20 -13.5166 -12.5729
      vertex 20 -12.4268 -14.0729
      vertex 23 -13.5166 -12.5729
    endloop
  endfacet
  facet normal 0 -1 0
    outer loop
      vertex 20 -12.4268 -15.9271
      vertex 23 -12.4268 -15.9271
      vertex 23 -12.4268 -14.0729
    endloop
  endfacet
  facet normal 0 -1 0
    outer loop
      vertex 20 -12.4268 -15
      vertex 20 -12.4268 -15.9271
      vertex 20 -12.4268 -14.0729
    endloop
  endfacet
  facet normal 0 -1 0
    outer loop
      vertex 20 -12.4268 -14.0729
      vertex 20 -12.4268 -15.9271
      vertex 23 -12.4268 -14.0729
    endloop
  endfacet
  facet normal 1 0 2.22045e-16
    outer loop
      vertex 20 12.4268 -15.9271
      vertex 20 13.5166 -17.4271
      vertex 20 15.28 -18
    endloop
  endfacet
  facet normal 1 0 2.22045e-16
    outer loop
      vertex 20 18.1332 -15.9271
      vertex 20 12.4268 -15.9271
      vertex 20 17.0434 -17.4271
    endloop
  endfacet
  facet normal 1 0 2.22045e-16
    outer loop
      vertex 20 17.0434 -17.4271
      vertex 20 12.4268 -15.9271
      vertex 20 15.28 -18
    endloop
  endfacet
  facet normal 1 0 2.22045e-16
    outer loop
      vertex 20 18.1332 -15
      vertex 20 12.4268 -15.9271
      vertex 20 18.1332 -15.9271
    endloop
  endfacet
  facet normal 1 0 2.22045e-16
    outer loop
      vertex 20 12.4268 -15
      vertex 20 12.4268 -15.9271
      vertex 20 18.1332 -15
    endloop
  endfacet
  facet normal 0 1 0
    outer loop
      vertex 23 12.4268 -14.0729
      vertex 23 12.4268 -15.9271
      vertex 20 12.4268 -14.0729
    endloop
  endfacet
  facet normal 0 1 0
    outer loop
      vertex 20 12.4268 -14.0729
      vertex 23 12.4268 -15.9271
      vertex 20 12.4268 -15.9271
    endloop
  endfacet
  facet normal 0 1 0
    outer loop
      vertex 20 12.4268 -14.0729
      vertex 20 12.4268 -15.9271
      vertex 20 12.4268 -15
    endloop
  endfacet
  facet normal 1.30515e-16 0.809017 -0.587785
    outer loop
      vertex 23 13.5166 -12.5729
      vertex 23 12.4268 -14.0729
      vertex 20 13.5166 -12.5729
    endloop
  endfacet
  facet normal 1.30515e-16 0.809017 -0.587785
    outer loop
      vertex 20 13.5166 -12.5729
      vertex 23 12.4268 -14.0729
      vertex 20 12.4268 -14.0729
    endloop
  endfacet
  facet normal 2.11177e-16 0.309017 -0.951057
    outer loop
      vertex 23 15.28 -12
      vertex 23 13.5166 -12.5729
      vertex 20 15.28 -12
    endloop
  endfacet
  facet normal 2.11177e-16 0.309017 -0.951057
    outer loop
      vertex 20 15.28 -12
      vertex 23 13.5166 -12.5729
      vertex 20 13.5166 -12.5729
    endloop
  endfacet
  facet normal 2.11177e-16 -0.309017 -0.951057
    outer loop
      vertex 23 17.0434 -12.5729
      vertex 23 15.28 -12
      vertex 20 17.0434 -12.5729
    endloop
  endfacet
  facet normal 2.11177e-16 -0.309017 -0.951057
    outer loop
      vertex 20 17.0434 -12.5729
      vertex 23 15.28 -12
      vertex 20 15.28 -12
    endloop
  endfacet
  facet normal 1.30515e-16 -0.809017 -0.587785
    outer loop
      vertex 20 18.1332 -14.0729
      vertex 23 18.1332 -14.0729
      vertex 23 17.0434 -12.5729
    endloop
  endfacet
  facet normal 1.30515e-16 -0.809017 -0.587785
    outer loop
      vertex 20 17.0434 -12.5729
      vertex 20 18.1332 -14.0729
      vertex 23 17.0434 -12.5729
    endloop
  endfacet
  facet normal 0 -1 0
    outer loop
      vertex 20 18.1332 -15.9271
      vertex 23 18.1332 -15.9271
      vertex 23 18.1332 -14.0729
    endloop
  endfacet
  facet normal 0 -1 0
    outer loop
      vertex 20 18.1332 -15
      vertex 20 18.1332 -15.9271
      vertex 20 18.1332 -14.0729
    endloop
  endfacet
  facet normal 0 -1 0
    outer loop
      vertex 20 18.1332 -14.0729
      vertex 20 18.1332 -15.9271
      vertex 23 18.1332 -14.0729
    endloop
  endfacet
  facet normal -1.30515e-16 0.809017 0.587785
    outer loop
      vertex 23 -17.0434 62.5729
      vertex 20 -17.0434 62.5729
      vertex 23 -18.1332 64.0729
    endloop
  endfacet
  facet normal -1.30515e-16 0.809017 0.587785
    outer loop
      vertex 23 -18.1332 64.0729
      vertex 20 -17.0434 62.5729
      vertex 20 -18.1332 64.0729
    endloop
  endfacet
  facet normal -1.30515e-16 -0.809017 0.587785
    outer loop
      vertex 20 -13.5166 62.5729
      vertex 23 -13.5166 62.5729
      vertex 23 -12.4268 64.0729
    endloop
  endfacet
  facet normal -1.30515e-16 -0.809017 0.587785
    outer loop
      vertex 20 -12.4268 64.0729
      vertex 20 -13.5166 62.5729
      vertex 23 -12.4268 64.0729
    endloop
  endfacet
  facet normal -2.11177e-16 -0.309017 0.951057
    outer loop
      vertex 20 -15.28 62
      vertex 23 -15.28 62
      vertex 23 -13.5166 62.5729
    endloop
  endfacet
  facet normal -2.11177e-16 -0.309017 0.951057
    outer loop
      vertex 20 -13.5166 62.5729
      vertex 20 -15.28 62
      vertex 23 -13.5166 62.5729
    endloop
  endfacet
  facet normal -2.11177e-16 0.309017 0.951057
    outer loop
      vertex 23 -17.0434 62.5729
      vertex 23 -15.28 62
      vertex 20 -15.28 62
    endloop
  endfacet
  facet normal -2.11177e-16 0.309017 0.951057
    outer loop
      vertex 20 -17.0434 62.5729
      vertex 23 -17.0434 62.5729
      vertex 20 -15.28 62
    endloop
  endfacet
  facet normal -1.30515e-16 0.809017 0.587785
    outer loop
      vertex 23 13.5166 62.5729
      vertex 20 13.5166 62.5729
      vertex 23 12.4268 64.0729
    endloop
  endfacet
  facet normal -1.30515e-16 0.809017 0.587785
    outer loop
      vertex 23 12.4268 64.0729
      vertex 20 13.5166 62.5729
      vertex 20 12.4268 64.0729
    endloop
  endfacet
  facet normal -1.30515e-16 -0.809017 0.587785
    outer loop
      vertex 20 17.0434 62.5729
      vertex 23 17.0434 62.5729
      vertex 23 18.1332 64.0729
    endloop
  endfacet
  facet normal -1.30515e-16 -0.809017 0.587785
    outer loop
      vertex 20 18.1332 64.0729
      vertex 20 17.0434 62.5729
      vertex 23 18.1332 64.0729
    endloop
  endfacet
  facet normal -2.11177e-16 -0.309017 0.951057
    outer loop
      vertex 20 15.28 62
      vertex 23 15.28 62
      vertex 23 17.0434 62.5729
    endloop
  endfacet
  facet normal -2.11177e-16 -0.309017 0.951057
    outer loop
      vertex 20 17.0434 62.5729
      vertex 20 15.28 62
      vertex 23 17.0434 62.5729
    endloop
  endfacet
  facet normal -2.11177e-16 0.309017 0.951057
    outer loop
      vertex 23 13.5166 62.5729
      vertex 23 15.28 62
      vertex 20 15.28 62
    endloop
  endfacet
  facet normal -2.11177e-16 0.309017 0.951057
    outer loop
      vertex 20 13.5166 62.5729
      vertex 23 13.5166 62.5729
      vertex 20 15.28 62
    endloop
  endfacet
  facet normal -1.30515e-16 0.809017 0.587785
    outer loop
      vertex 23 -17.0434 -17.4271
      vertex 20 -17.0434 -17.4271
      vertex 23 -18.1332 -15.9271
    endloop
  endfacet
  facet normal -1.30515e-16 0.809017 0.587785
    outer loop
      vertex 23 -18.1332 -15.9271
      vertex 20 -17.0434 -17.4271
      vertex 20 -18.1332 -15.9271
    endloop
  endfacet
  facet normal -2.11177e-16 0.309017 0.951057
    outer loop
      vertex 23 -17.0434 -17.4271
      vertex 23 -15.28 -18
      vertex 20 -15.28 -18
    endloop
  endfacet
  facet normal -2.11177e-16 0.309017 0.951057
    outer loop
      vertex 20 -17.0434 -17.4271
      vertex 23 -17.0434 -17.4271
      vertex 20 -15.28 -18
    endloop
  endfacet
  facet normal -2.11177e-16 -0.309017 0.951057
    outer loop
      vertex 20 -15.28 -18
      vertex 23 -15.28 -18
      vertex 23 -13.5166 -17.4271
    endloop
  endfacet
  facet normal -2.11177e-16 -0.309017 0.951057
    outer loop
      vertex 20 -13.5166 -17.4271
      vertex 20 -15.28 -18
      vertex 23 -13.5166 -17.4271
    endloop
  endfacet
  facet normal -1.30515e-16 -0.809017 0.587785
    outer loop
      vertex 20 -13.5166 -17.4271
      vertex 23 -13.5166 -17.4271
      vertex 23 -12.4268 -15.9271
    endloop
  endfacet
  facet normal -1.30515e-16 -0.809017 0.587785
    outer loop
      vertex 20 -12.4268 -15.9271
      vertex 20 -13.5166 -17.4271
      vertex 23 -12.4268 -15.9271
    endloop
  endfacet
  facet normal -1.30515e-16 0.809017 0.587785
    outer loop
      vertex 23 13.5166 -17.4271
      vertex 20 13.5166 -17.4271
      vertex 23 12.4268 -15.9271
    endloop
  endfacet
  facet normal -1.30515e-16 0.809017 0.587785
    outer loop
      vertex 23 12.4268 -15.9271
      vertex 20 13.5166 -17.4271
      vertex 20 12.4268 -15.9271
    endloop
  endfacet
  facet normal -2.11177e-16 0.309017 0.951057
    outer loop
      vertex 23 13.5166 -17.4271
      vertex 23 15.28 -18
      vertex 20 15.28 -18
    endloop
  endfacet
  facet normal -2.11177e-16 0.309017 0.951057
    outer loop
      vertex 20 13.5166 -17.4271
      vertex 23 13.5166 -17.4271
      vertex 20 15.28 -18
    endloop
  endfacet
  facet normal -2.11177e-16 -0.309017 0.951057
    outer loop
      vertex 20 15.28 -18
      vertex 23 15.28 -18
      vertex 23 17.0434 -17.4271
    endloop
  endfacet
  facet normal -2.11177e-16 -0.309017 0.951057
    outer loop
      vertex 20 17.0434 -17.4271
      vertex 20 15.28 -18
      vertex 23 17.0434 -17.4271
    endloop
  endfacet
  facet normal -1.30515e-16 -0.809017 0.587785
    outer loop
      vertex 20 17.0434 -17.4271
      vertex 23 17.0434 -17.4271
      vertex 23 18.1332 -15.9271
    endloop
  endfacet
  facet normal -1.30515e-16 -0.809017 0.587785
    outer loop
      vertex 20 18.1332 -15.9271
      vertex 20 17.0434 -17.4271
      vertex 23 18.1332 -15.9271
    endloop
  endfacet
endsolid OpenSCAD_Model
